<?xml version="1.0" encoding="UTF-8" standalone="no"?>
<svg
   xmlns:dc="http://purl.org/dc/elements/1.1/"
   xmlns:cc="http://creativecommons.org/ns#"
   xmlns:rdf="http://www.w3.org/1999/02/22-rdf-syntax-ns#"
   xmlns:svg="http://www.w3.org/2000/svg"
   xmlns="http://www.w3.org/2000/svg"
   viewBox="0 0 586.37335 470.66666"
   height="470.66666"
   width="586.37335"
   xml:space="preserve"
   id="svg2"
   version="1.1"><metadata
     id="metadata8"><rdf:RDF><cc:Work
         rdf:about=""><dc:format>image/svg+xml</dc:format><dc:type
           rdf:resource="http://purl.org/dc/dcmitype/StillImage" /></cc:Work></rdf:RDF></metadata><defs
     id="defs6"><clipPath
       id="clipPath20"
       clipPathUnits="userSpaceOnUse"><path
         id="path18"
         d="M 0,0 H 4397.81 V 3530 H 0 Z" /></clipPath></defs><g
     transform="matrix(1.3333333,0,0,-1.3333333,0,470.66667)"
     id="g10"><g
       transform="scale(0.1)"
       id="g12"><g
         id="g14"><g
           clip-path="url(#clipPath20)"
           id="g16"><path
             id="path22"
             style="fill:#64321f;fill-opacity:1;fill-rule:nonzero;stroke:none"
             d="m 2427.9,2718.84 c -24.65,102.99 -61.98,177.8 -183.2,177.58 -119.63,-0.21 -172.73,-69.12 -182.3,-170.3 -0.48,-5.12 -12.56,-74.6 -12.56,-74.6 0,-28.88 -20.14,-53 -47.11,-59.23 l -0.36,-0.89 c -55.44,-15.63 -96.09,-66.53 -96.09,-126.97 0,-72.86 59.07,-131.93 131.93,-131.93 43.5,0 82.07,21.06 106.1,53.52 h 244.24 v 196.77 h -11.09 c 34.11,36.29 63.24,82.54 50.44,136.05" /><path
             id="path24"
             style="fill:#6bafb8;fill-opacity:1;fill-rule:nonzero;stroke:none"
             d="m 445.234,907.809 -165.843,-19.11 c -32.536,-3.75 -61.95,19.582 -65.7,52.11 l -64.136,556.411 c -3.75,32.53 19.582,61.94 52.117,65.69 l 208.148,24 L 482.664,955 c 2.688,-23.371 -14.062,-44.488 -37.43,-47.191" /><path
             id="path26"
             style="fill:#81cad1;fill-opacity:1;fill-rule:nonzero;stroke:none"
             d="m 156.297,1440.62 16.683,-144.73 c 3.278,-0.15 6.567,-0.25 9.879,-0.25 122.543,0 221.883,99.34 221.883,221.88 0,23.51 -3.679,46.14 -10.453,67.4 l -135.945,-15.67 c -63.703,-7.34 -109.391,-64.93 -102.047,-128.63" /><path
             id="path28"
             style="fill:#fac1af;fill-opacity:1;fill-rule:nonzero;stroke:none"
             d="m 1125.54,1275.9 -10.91,129.16 c -1.18,14.03 -4.8,27.74 -10.69,40.53 l -145.417,315.57 c -17.164,36.18 -61.031,50.77 -96.464,32.04 -34.664,-18.32 -46.504,-63.59 -27.731,-98 l 178.402,-327.05 19.9,-117.78 92.91,25.53" /><path
             id="path30"
             style="fill:#1f233d;fill-opacity:1;fill-rule:nonzero;stroke:none"
             d="m 2160.26,1605.41 -182.46,-28.13 c -95.53,-14.74 -184.93,50.76 -199.66,146.3 l -62.67,453.35 c -10.57,76.41 42.13,147.16 118.37,158.92 l 76.74,11.84 c 77.75,11.99 150.32,-41.85 161.37,-119.74 l 88.31,-622.54" /><path
             id="path32"
             style="fill:#b58e53;fill-opacity:1;fill-rule:nonzero;stroke:none"
             d="m 2957.73,1530.47 -50.41,58.56 c -12.8,14.88 -34.47,18.32 -51.24,8.16 l -15.19,-9.21 c -18.19,-11.03 -24.63,-34.33 -14.67,-53.13 l 36.91,-69.66 c 0.67,-1.26 1.4,-2.48 2.19,-3.67 l 31.64,-46.87 c 10.23,-15.16 29.41,-21.49 46.66,-15.4 l 9.45,3.34 c 18.76,6.63 29.84,25.99 26.04,45.52 l -12.41,63.82 c -1.33,6.86 -4.42,13.25 -8.97,18.54" /><path
             id="path34"
             style="fill:#deb83e;fill-opacity:1;fill-rule:nonzero;stroke:none"
             d="m 2024.52,1125.28 29.53,109.14 c 101.4,374.77 134.46,764.74 97.6,1151.23 l -264.56,-306.45 -12.97,-684.25 c -2.42,-127.9 25.5,-242.01 150.4,-269.67" /><path
             id="path36"
             style="fill:#deb83e;fill-opacity:1;fill-rule:nonzero;stroke:none"
             d="m 1687.02,1990.31 c 0,0 24.35,-111.09 53.58,-131.05 69.52,-47.44 346.18,358.53 346.18,358.53 33.92,36.27 30.84,93.48 -6.76,125.9 -36.98,31.88 -92.9,27.29 -124.18,-10.19 l -268.82,-343.19" /><path
             id="path38"
             style="fill:#1f233d;fill-opacity:1;fill-rule:nonzero;stroke:none"
             d="M 2249.05,92.4219 2147.18,40.1914 c -24.8,-12.7226 -52.16,-18.1523 -79.12,-16.3828 -23.07,1.5195 -45.3,6.043 -54.68,20.6602 -12.71,19.8007 -0.99,45.4609 16.64,61.0432 l 102.67,90.726 c 11.22,9.922 25.67,15.391 40.64,15.391 h 52.21 c 12.99,0 23.51,-10.527 23.51,-23.5 V 92.4219" /><path
             id="path40"
             style="fill:#b58e53;fill-opacity:1;fill-rule:nonzero;stroke:none"
             d="m 2417.61,2416.64 -168.04,29.46 -151.75,-30.01 c -35.54,-7.03 -69.25,-22.21 -96.76,-45.77 -40.07,-34.31 -64.08,-81.19 -63.87,-136.48 l 98.77,-180.99 188.43,-146.66 265.33,196.43 102.54,150.96 c -10.86,40.97 -32.78,79.48 -69.67,112.96 -29.25,26.55 -66.07,43.28 -104.98,50.1" /><path
             id="path42"
             style="fill:#1f233d;fill-opacity:1;fill-rule:nonzero;stroke:none"
             d="M 462.449,1177.29 719.715,1219 704.676,1597.72 410.402,1556 462.449,1177.29" /><path
             id="path44"
             style="fill:#333a74;fill-opacity:1;fill-rule:nonzero;stroke:none"
             d="m 612.242,993.41 342.281,148.88 c 37.934,58.89 54.407,129.07 46.647,198.7 l -43.053,374.98 c -8.855,76 -77.652,130.43 -153.652,121.57 0,0 -123.629,-15.01 -156.563,-23.02 C 538.336,1787.88 520.926,1699.7 529.781,1623.69 l 82.461,-630.28" /><path
             id="path46"
             style="fill:#1f233d;fill-opacity:1;fill-rule:nonzero;stroke:none"
             d="m 871.242,790.281 568.078,144.137 24.73,194.012 -539.706,14.68 -315.371,-121.06 0.664,-6.05 C 624.141,883.789 738.336,785.262 871.242,790.281" /><path
             id="path48"
             style="fill:#1f233d;fill-opacity:1;fill-rule:nonzero;stroke:none"
             d="m 1667.72,332.762 81.87,24.957 -180.27,648.391 c -15.19,54.62 -54.12,99.54 -106.03,122.32 l -31.45,-172.731 c -12.49,-74.027 -3.08,-150.097 27.06,-218.871 l 208.82,-404.066" /><path
             id="path50"
             style="fill:#b43b4e;fill-opacity:1;fill-rule:nonzero;stroke:none"
             d="m 1709.39,232.449 234.74,102.192 -10.31,23.73 c -7.12,16.379 -23.63,26.629 -41.46,25.758 l -148.1,-7.238 -83.56,-32.43 48.69,-112.012" /><path
             id="path52"
             style="fill:#1f233d;fill-opacity:1;fill-rule:nonzero;stroke:none"
             d="m 462.449,551.801 c 0,-45.883 37.192,-83.071 83.071,-83.071 45.875,0 83.066,37.188 83.066,83.071 0,45.879 -37.191,83.058 -83.066,83.058 -45.879,0 -83.071,-37.179 -83.071,-83.058" /><path
             id="path54"
             style="fill:#1f233d;fill-opacity:1;fill-rule:nonzero;stroke:none"
             d="m 1237.89,164.18 c 0,-57.789 47.02,-104.8206 104.82,-104.8206 57.79,0 104.82,47.0316 104.82,104.8206 0,57.789 -47.03,104.832 -104.82,104.832 -57.8,0 -104.82,-47.043 -104.82,-104.832 z m -54.69,0 c 0,87.961 71.55,159.511 159.51,159.511 87.95,0 159.5,-71.55 159.5,-159.511 0,-87.9612 -71.55,-159.51203 -159.5,-159.51203 -87.96,0 -159.51,71.55083 -159.51,159.51203" /><path
             id="path56"
             style="fill:#b1cedc;fill-opacity:1;fill-rule:nonzero;stroke:none"
             d="m 994.633,1107.34 -70.031,7 33.847,338.6 70.021,-7 -33.837,-338.6" /><path
             id="path58"
             style="fill:#ffffff;fill-opacity:1;fill-rule:nonzero;stroke:none"
             d="m 930.711,1123.97 -40.781,4.08 37.996,380.14 40.781,-4.07 -37.996,-380.15" /><path
             id="path60"
             style="fill:#1f233d;fill-opacity:1;fill-rule:nonzero;stroke:none"
             d="m 580.684,219.051 c 1.183,0 2.375,0.09 3.578,0.238 14.972,1.961 25.523,15.68 23.574,30.652 L 417.414,1708.01 c -10.168,77.85 -74.512,135.63 -153.004,137.4 l -100.535,2.26 c -15.305,0.32 -27.609,-11.63 -27.949,-26.73 -0.336,-15.09 11.625,-27.61 26.722,-27.95 l 100.532,-2.26 c 51.304,-1.15 93.359,-38.92 100.004,-89.8 L 553.605,242.859 c 1.801,-13.769 13.555,-23.808 27.079,-23.808" /><path
             id="path62"
             style="fill:#f9ab94;fill-opacity:1;fill-rule:nonzero;stroke:none"
             d="m 1096.35,1280.23 -89.32,-39.56 -35.229,-20.33 c -16.871,-9.73 -25.031,-29.64 -19.852,-48.42 l 0.68,-2.47 c 4.062,-14.71 18.293,-24.24 33.453,-22.39 l 54.148,6.62 c 6.19,0.75 12.07,3.12 17.08,6.84 l 72.7,54.18 -33.66,65.53" /><path
             id="path64"
             style="fill:#1f233d;fill-opacity:1;fill-rule:nonzero;stroke:none"
             d="m 518.137,710.391 c 1.051,0 2.105,0.058 3.168,0.187 L 1255.7,795.23 c 15,1.731 25.76,15.29 24.03,30.29 -1.74,15.011 -15.28,25.761 -30.3,24.031 L 515.043,764.898 c -15,-1.718 -25.766,-15.289 -24.035,-30.289 1.605,-13.941 13.433,-24.218 27.129,-24.218" /><path
             id="path66"
             style="fill:#1f233d;fill-opacity:1;fill-rule:nonzero;stroke:none"
             d="m 1346.26,136.828 c 1.27,0 2.55,0.102 3.84,0.274 14.96,2.097 25.38,15.937 23.27,30.886 l -132.82,944.852 c -14.49,103.12 -106.84,174.62 -210.34,162.63 l -560.663,-64.63 c -15.004,-1.73 -25.762,-15.29 -24.031,-30.29 1.726,-15.01 15.304,-25.78 30.297,-24.04 l 560.667,64.63 c 73.73,8.49 139.58,-42.41 149.92,-115.91 l 132.82,-944.859 c 1.92,-13.66 13.63,-23.531 27.04,-23.543" /><path
             id="path68"
             style="fill:#1f233d;fill-opacity:1;fill-rule:nonzero;stroke:none"
             d="m 172.34,171.02 c 1.055,0 2.125,0.058 3.199,0.179 l 882.081,102.653 c 54.07,6.238 100.45,43.546 118.14,95.046 8.9,25.93 32.25,44.711 59.48,47.852 l 73.67,8.5 c 15,1.719 25.76,15.289 24.04,30.289 -1.74,15 -15.31,25.75 -30.3,24.031 l -73.67,-8.492 c -48.05,-5.539 -89.24,-38.68 -104.95,-84.418 -10.88,-31.691 -39.41,-54.64 -72.7,-58.48 L 169.215,225.531 c -15,-1.75 -25.746,-15.32 -23.996,-30.332 1.621,-13.929 13.433,-24.179 27.121,-24.179" /><path
             id="path70"
             style="fill:#1f233d;fill-opacity:1;fill-rule:nonzero;stroke:none"
             d="m 1678.14,166.918 c 3.7,0 7.45,0.754 11.04,2.332 l 231.02,102.09 c 13.82,6.101 20.07,22.25 13.96,36.051 -6.1,13.82 -22.24,20.078 -36.06,13.968 l -206.6,-91.3 -193.89,411.711 c -27.95,59.339 -90.34,92.878 -155.26,83.492 L 1268.8,714.59 c -14.95,-2.168 -25.3,-16.031 -23.13,-30.988 2.16,-14.942 16.01,-25.321 30.98,-23.133 l 73.54,10.66 c 40.93,5.91 80.31,-15.231 97.95,-52.66 l 205.25,-435.86 c 4.65,-9.871 14.48,-15.691 24.75,-15.691" /><path
             id="path72"
             style="fill:#1f233d;fill-opacity:1;fill-rule:nonzero;stroke:none"
             d="m 1292.84,516.828 c 1.41,0 2.84,0.113 4.28,0.34 l 205.27,32.262 c 14.92,2.351 25.11,16.351 22.77,31.261 -2.35,14.93 -16.33,25.09 -31.26,22.77 l -205.27,-32.27 c -14.92,-2.339 -25.11,-16.339 -22.77,-31.261 2.13,-13.469 13.75,-23.102 26.98,-23.102" /><path
             id="path74"
             style="fill:#1f233d;fill-opacity:1;fill-rule:nonzero;stroke:none"
             d="m 518.516,755.379 716.204,82.562 -28.92,250.889 -716.202,-82.56 28.918,-250.891" /><path
             id="path76"
             style="fill:#fac1af;fill-opacity:1;fill-rule:nonzero;stroke:none"
             d="m 828.867,1242.96 291.893,22.79 2.3,73.71 -378.771,15.79 -1.226,-26.6 c -2.219,-48.26 37.542,-87.98 85.804,-85.69" /><path
             id="path78"
             style="fill:#fac1af;fill-opacity:1;fill-rule:nonzero;stroke:none"
             d="m 754.176,1284.21 107,50.75 -169.988,358.35 c -17.129,36.12 -60.875,50.73 -96.274,32.16 -34.801,-18.27 -47.894,-61.5 -29.07,-96.01 l 188.332,-345.25" /><path
             id="path80"
             style="fill:#fac1af;fill-opacity:1;fill-rule:nonzero;stroke:none"
             d="m 1209.85,1310.89 -86.45,28.42 -34.24,-65.23 83.74,-50.31 42.59,-19.77 c 14.31,-6.65 31.3,-2.78 41.32,9.4 l 3.54,4.29 c 10.91,13.25 10.46,32.49 -1.04,45.23 l -34.57,38.28 c -4.04,4.47 -9.17,7.81 -14.89,9.69" /><path
             id="path82"
             style="fill:#b58e53;fill-opacity:1;fill-rule:nonzero;stroke:none"
             d="m 2186.37,2375.59 -0.98,209.28 135.17,1.53 0.98,-209.28 c 0.25,-21.68 -38.32,0.43 -74.51,1.68 -31.03,1.07 -60.45,-21.8 -60.66,-3.21" /><path
             id="path84"
             style="fill:#b58e53;fill-opacity:1;fill-rule:nonzero;stroke:none"
             d="m 2196.6,174.051 c 21.61,0.527 39,17.929 39.5,39.551 l 2.02,87.078 -93.99,-10.84 11.39,-80.942 c 2.87,-20.359 20.53,-35.339 41.08,-34.847" /><path
             id="path86"
             style="fill:#1f233d;fill-opacity:1;fill-rule:nonzero;stroke:none"
             d="m 2411.78,68.9414 101.86,-52.2422 c 24.81,-12.71092 52.17,-18.14842 79.14,-16.378887 23.06,1.531247 45.29,6.050777 54.67,20.667987 12.72,19.793 0.99,45.4609 -16.64,61.0312 l -102.67,90.7425 c -11.21,9.91 -25.67,15.386 -40.64,15.386 h -52.21 c -12.98,0 -23.51,-10.527 -23.51,-23.519 V 68.9414" /><path
             id="path88"
             style="fill:#b58e53;fill-opacity:1;fill-rule:nonzero;stroke:none"
             d="m 2465.85,140.199 c -19.87,-2.258 -38.01,12.77 -41.2,34.129 l -12.87,86.082 87.48,1.309 -0.19,-81.707 c -0.04,-20.563 -14.33,-37.672 -33.22,-39.813" /><path
             id="path90"
             style="fill:#b43b4e;fill-opacity:1;fill-rule:nonzero;stroke:none"
             d="m 2010.19,1745.51 c 132.83,6.73 267.57,64.7 262.88,-68.22 -6.98,-197.89 -47.21,-750.739 -44.58,-804.29 l 10.92,-631.891 c -0.32,-20.57 -87.76,-24.539 -91.25,-6.769 l -123.85,580.328 c -11.71,108.742 -68.39,641.632 -68.39,725.012 -0.01,91.67 54.27,205.83 54.27,205.83" /><path
             id="path92"
             style="fill:#b43b4e;fill-opacity:1;fill-rule:nonzero;stroke:none"
             d="m 2424.01,1734.37 c -132.26,-13.99 -294.57,53.39 -269.29,-77.19 37.63,-194.41 163.23,-734.301 168.95,-787.61 l 87.36,-625.91 c 3.5,-20.289 90.51,-10.609 91.2,7.469 l 32.2,592.519 c -5.33,109.243 -35.02,644.072 -45.04,726.852 -2.31,19.08 -65.38,163.87 -65.38,163.87" /><path
             id="path94"
             style="fill:#deb83e;fill-opacity:1;fill-rule:nonzero;stroke:none"
             d="m 2761.01,1914.84 135.12,-312.97 c -5.35,-32.63 -37.28,-53.83 -69.43,-46.1 l -8.78,2.11 -137.71,229.42 -59.96,171.86 c 50.81,29.57 116.05,9.03 140.76,-44.32" /><path
             id="path96"
             style="fill:#deb83e;fill-opacity:1;fill-rule:nonzero;stroke:none"
             d="m 2680.21,1787.3 80.8,127.54 -187.83,392.95 c -21.65,44.68 -83.99,117.2 -127.77,93.75 l 7.14,-55.08 c -43.04,-23.06 -58.86,-76.89 -35.12,-119.55 l 262.78,-439.61" /><path
             id="path98"
             style="fill:#ecdfd9;fill-opacity:1;fill-rule:nonzero;stroke:none"
             d="m 2428.32,1724.42 c -117.13,-69.89 -255.43,-69.15 -386.87,-31.1 -24.21,7 -56.18,27.93 -71.26,62.15 -14.31,32.48 12.11,83.96 27.86,176.66 15.57,91.55 51.79,378.27 51.79,378.27 l 173.27,-102.84 190.14,92.81 74.1,-479.44 -59.03,-96.51" /><path
             id="path100"
             style="fill:#deb83e;fill-opacity:1;fill-rule:nonzero;stroke:none"
             d="m 2432.66,1170.14 -25.75,110.09 c -88.14,376.75 -108.1,764.83 -58.59,1148.56 0.17,1.3 33.52,-6.05 33.52,-6.05 l 201.86,-301.02 8.56,-687.26 c -1.98,-127.91 -33.82,-240.98 -159.6,-264.32" /><path
             id="path102"
             style="fill:#deb83e;fill-opacity:1;fill-rule:nonzero;stroke:none"
             d="m 2000.28,1977.14 c 69.71,135.37 135.78,263.7 157.53,448.29 0.18,1.59 0.3,2.58 0.3,2.58 l -61.31,-11.96 c 0,0 -68.4,-9.96 -100.39,-48.33 -78.75,-94.48 -95.07,-448.66 -95.07,-448.66 -15.39,-127 38.4,-59.48 98.94,58.08" /><path
             id="path104"
             style="fill:#a77e40;fill-opacity:1;fill-rule:nonzero;stroke:none"
             d="m 2320.81,2591.36 -135.17,-1.53 0.52,-112.71 c 16.23,-10.17 33.18,-20.49 33.18,-20.49 20.5,-11.09 37.54,-12.82 64.16,3.97 0,0 25.48,17.64 37.79,26.75 l -0.48,104.01" /><path
             id="path106"
             style="fill:#64321f;fill-opacity:1;fill-rule:nonzero;stroke:none"
             d="m 2497.51,2354.98 c 0,-50.33 -40.79,-91.12 -91.12,-91.12 -50.32,0 -91.12,40.79 -91.12,91.12 0,50.33 40.8,91.12 91.12,91.12 50.33,0 91.12,-40.79 91.12,-91.12" /><path
             id="path108"
             style="fill:#64321f;fill-opacity:1;fill-rule:nonzero;stroke:none"
             d="m 2431.29,2267.33 -61.09,128.52 -105.48,343.64 141.67,49.92 125.96,-311.07 c 30.36,-86.18 -14.89,-180.65 -101.06,-211.01" /><path
             id="path110"
             style="fill:#b58e53;fill-opacity:1;fill-rule:nonzero;stroke:none"
             d="m 2326.96,2521.04 c -10.31,-7.9 -41.01,-29.17 -41.01,-29.17 -26.62,-16.79 -43.66,-15.06 -64.16,-3.97 0,0 -44.08,26.85 -58.15,36.58 -23.7,16.41 -35.09,40.11 -39.31,79.5 l -2.42,108.12 c -1.01,45.14 28.65,82.7 73.79,83.54 l 105.37,1.97 c 43.64,0.82 68.25,-35.21 71,-78.77 0.52,-8.16 3.2,-113.03 3.2,-113.03 -0.92,-31.45 -20.96,-63.81 -48.31,-84.77" /><path
             id="path112"
             style="fill:#161b31;fill-opacity:1;fill-rule:nonzero;stroke:none"
             d="m 1863.64,1669.23 -35.95,33.61 57.09,61.08 c 79.23,84.76 111.08,202.89 85.19,315.99 l -56.77,248.09 47.98,10.99 56.78,-248.1 c 29.53,-129.06 -6.82,-263.86 -97.23,-360.59 l -57.09,-61.07" /><path
             id="path114"
             style="fill:#b58e53;fill-opacity:1;fill-rule:nonzero;stroke:none"
             d="m 1695.45,2024.26 191.82,201.48 74.27,-50.19 -220.94,-316.29 -26.51,18.61 c -48.12,33.78 -56.75,101.63 -18.64,146.39" /><path
             id="path116"
             style="fill:#b58e53;fill-opacity:1;fill-rule:nonzero;stroke:none"
             d="m 1970.87,2360.33 -26.82,-19.29 c -4.01,-2.89 -7.2,-6.77 -9.25,-11.26 l -47.53,-104.04 74.27,-50.19 71.22,93.28 c 0.61,0.81 1.18,1.64 1.7,2.5 l 11.69,19.26 c 7,11.53 4.92,26.39 -4.96,35.57 l -34.4,31.93 c -9.91,9.2 -24.94,10.13 -35.92,2.24" /><path
             id="path118"
             style="fill:#333a74;fill-opacity:1;fill-rule:nonzero;stroke:none"
             d="m 690.945,1704.04 c -18.531,39.08 -65.855,54.88 -104.144,34.78 -39.699,0 -64.922,-42.49 -45.914,-77.34 l 73.492,-134.72 1.586,-0.16 c 51.074,-4.77 100.887,17.73 131.062,59.21 l -56.082,118.23" /><path
             id="path120"
             style="fill:#333a74;fill-opacity:1;fill-rule:nonzero;stroke:none"
             d="m 957.617,1762.33 c -37.097,85.34 -131.222,76.03 -131.222,76.03 -36.7,0 -25.067,-83.16 -7.493,-115.38 l 67.938,-124.54 1.465,-0.14 c 47.215,-4.41 93.258,16.38 121.155,54.73 l -51.843,109.3" /><path
             id="path122"
             style="fill:#6bafb8;fill-opacity:1;fill-rule:nonzero;stroke:none"
             d="m 379.992,941.98 c -4.125,0 -8.304,1.051 -12.148,3.231 -11.813,6.719 -15.938,21.738 -9.215,33.559 1.789,3.148 178.125,318.92 80.68,588.05 -4.629,12.78 1.984,26.89 14.761,31.52 12.785,4.62 26.891,-1.98 31.52,-14.76 105.262,-290.74 -76.399,-615.471 -84.184,-629.15 -4.535,-7.969 -12.851,-12.45 -21.414,-12.45" /><path
             id="path124"
             style="fill:#1f233d;fill-opacity:1;fill-rule:nonzero;stroke:none"
             d="m 54.6875,551.801 c 0,-270.653 220.1875,-490.8322 490.8285,-490.8322 270.644,0 490.824,220.1792 490.824,490.8322 0,270.64 -220.18,490.829 -490.824,490.829 -270.641,0 -490.8285,-220.189 -490.8285,-490.829 z M 0,551.801 c 0,300.789 244.719,545.519 545.516,545.519 300.8,0 545.514,-244.73 545.514,-545.519 C 1091.03,251 846.316,6.28125 545.516,6.28125 244.719,6.28125 0,251 0,551.801" /><path
             id="path126"
             style="fill:#331616;fill-opacity:1;fill-rule:nonzero;stroke:none"
             d="m 903.395,2015.44 c 15.273,31.48 23.804,67.15 23.804,103.15 0,106.71 -69.199,170.8 -173.312,175.14 -107.957,4.51 -200.61,-87.52 -190.75,-192.85 9.945,-106.25 80.902,-192.98 185.101,-192.98 1.328,0 2.633,0.09 3.95,0.12 15.406,-31.16 48.593,-52.79 87.175,-52.79 53.231,0 96.387,41.08 96.387,91.75 0,27.25 -12.547,51.65 -32.355,68.46" /><path
             id="path128"
             style="fill:#fac1af;fill-opacity:1;fill-rule:nonzero;stroke:none"
             d="m 753.473,1755.72 c 40.273,0 72.922,32.65 72.922,72.92 v 170.45 H 680.559 v -170.45 c 0,-40.27 32.644,-72.92 72.914,-72.92" /><path
             id="path130"
             style="fill:#f9ab94;fill-opacity:1;fill-rule:nonzero;stroke:none"
             d="m 680.559,1880.84 c 9.113,-8.5 18.953,-15.37 29.117,-19.33 10.695,-4.17 76.937,-20.82 116.719,-11.09 v 153.63 H 680.559 v -123.21" /><path
             id="path132"
             style="fill:#fac1af;fill-opacity:1;fill-rule:nonzero;stroke:none"
             d="m 745.848,2034.71 37.175,-2.47 4.86,72.98 -29.762,10.69 c -15.601,5.6 -32.226,-5.29 -33.328,-21.83 l -2.184,-32.81 c -0.918,-13.75 9.489,-25.64 23.239,-26.56" /><path
             id="path134"
             style="fill:#fac1af;fill-opacity:1;fill-rule:nonzero;stroke:none"
             d="m 926.707,1934.05 c -7.754,-10.43 -29.945,-32.81 -42.391,-38.4 -35.539,-15.98 -100.207,-5.97 -112.312,-1.25 -35.688,13.93 -54.434,39.54 -62.797,74.83 l -75.723,204.99 77.731,20.14 73.156,16.81 c 58.281,13.41 118.703,-19.44 135.656,-76.79 0.606,-2.05 1.157,-4.12 1.653,-6.22 l 15.191,-64.1 c 8.371,-35.29 16.594,-94.01 -10.164,-130.01" /><path
             id="path136"
             style="fill:#331616;fill-opacity:1;fill-rule:nonzero;stroke:none"
             d="m 629.723,2021.53 0.406,3.42 1.441,-3.58 c -0.609,0.07 -1.23,0.1 -1.847,0.16 z m 52.558,-9.69 c 46.774,29.72 67.262,89.41 45.871,142.69 l -21.484,53.5 -129.215,-51.88 28.473,-70.91 -30.16,3.58 -4.133,-34.78 c 6.015,-16.19 4.043,-33.36 -3.836,-47.35 -25.984,-16.43 -43.125,-44.53 -43.125,-76.45 0,-50.68 43.152,-91.76 96.383,-91.76 22.48,0 43.117,7.39 59.511,19.68 39.235,24.77 50.754,76.7 25.821,115.84 l -24.106,37.84" /><path
             id="path138"
             style="fill:#fac1af;fill-opacity:1;fill-rule:nonzero;stroke:none"
             d="m 733.531,1976.05 31.875,19.29 -37.871,62.58 -30.508,-8.31 c -15.996,-4.35 -23.375,-22.81 -14.789,-36.99 l 17.032,-28.14 c 7.132,-11.79 22.476,-15.56 34.261,-8.43" /><path
             id="path140"
             style="fill:#b58e53;fill-opacity:1;fill-rule:nonzero;stroke:none"
             d="m 2365.18,2594.79 -37,4.42 8.68,72.63 31.21,5.02 c 16.37,2.63 30.7,-11.14 28.74,-27.59 l -3.9,-32.66 c -1.64,-13.68 -14.05,-23.45 -27.73,-21.82" /><path
             id="path142"
             style="fill:#f2ecde;fill-opacity:1;fill-rule:nonzero;stroke:none"
             d="M 91.5352,551.801 C 91.5352,301.48 295.191,97.8203 545.516,97.8203 795.844,97.8203 999.5,301.48 999.5,551.801 c 0,250.32 -203.656,453.979 -453.984,453.979 -250.325,0 -453.9808,-203.659 -453.9808,-453.979 z m -27.3438,0 c 0,265.398 215.9216,481.329 481.3246,481.329 265.406,0 481.324,-215.931 481.324,-481.329 0,-265.41 -215.918,-481.3322 -481.324,-481.3322 -265.403,0 -481.3246,215.9222 -481.3246,481.3322" /><path
             id="path144"
             style="fill:#331616;fill-opacity:1;fill-rule:nonzero;stroke:none"
             d="m 908.969,2070.25 c -5.262,-1.35 -10.664,1.86 -12.008,7.12 l -2.223,8.69 c -1.343,5.26 1.86,10.66 7.117,12.01 5.262,1.34 10.665,-1.86 12.008,-7.12 l 2.223,-8.69 c 1.344,-5.26 -1.859,-10.67 -7.117,-12.01" /><path
             id="path146"
             style="fill:#331616;fill-opacity:1;fill-rule:nonzero;stroke:none"
             d="m 801.75,2032.53 c 5.262,1.32 8.492,6.71 7.168,11.98 l -2.184,8.7 c -1.316,5.26 -6.707,8.49 -11.976,7.17 -5.266,-1.32 -8.492,-6.71 -7.168,-11.98 l 2.183,-8.7 c 1.317,-5.26 6.707,-8.49 11.977,-7.17" /><path
             id="path148"
             style="fill:#331616;fill-opacity:1;fill-rule:nonzero;stroke:none"
             d="m 794.957,2093.68 c 2.289,0.82 3.828,3.1 3.606,5.63 -0.266,3.01 -2.165,9.43 -11.149,8.1 -11.152,-1.65 -25.914,-8.1 -33.766,-12.1 -2.695,-1.37 -9.414,-8.52 -8.043,-11.21 1.379,-2.69 4.676,-3.68 7.356,-2.39 7.164,3.65 14.703,6.51 22.422,8.53 5.961,1.55 12.09,2.61 18.215,3.14 0.472,0.05 0.929,0.15 1.359,0.3" /><path
             id="path150"
             style="fill:#331616;fill-opacity:1;fill-rule:nonzero;stroke:none"
             d="m 878.152,2117.77 c -2.261,-0.89 -4.922,-0.19 -6.418,1.86 -1.781,2.44 -4.586,8.52 3.051,13.44 9.481,6.11 24.832,10.97 33.375,13.14 2.93,0.74 12.692,-0.21 13.434,-3.14 0.738,-2.93 -1.09,-5.85 -3.961,-6.64 -7.785,-1.98 -15.348,-4.79 -22.481,-8.35 -5.507,-2.76 -10.82,-6.01 -15.773,-9.63 -0.395,-0.28 -0.805,-0.51 -1.227,-0.68" /><path
             id="path152"
             style="fill:#ffffff;fill-opacity:1;fill-rule:nonzero;stroke:none"
             d="m 883.598,1948.75 12.121,4.53 c 18.39,6.35 28.144,26.41 21.793,44.8 l -78.715,-27.54 c 6.355,-18.39 26.41,-28.14 44.801,-21.79" /><path
             id="path154"
             style="fill:#ec9f87;fill-opacity:1;fill-rule:nonzero;stroke:none"
             d="m 883.941,2005.03 c -2.207,-0.53 -5.82,-1.95 -7.097,0.07 -1.614,2.56 0.367,8.26 2.918,9.87 3.824,2.42 6.39,6.19 7.23,10.63 0.836,4.44 -0.176,8.89 -2.851,12.54 l -16.352,22.36 c -1.785,2.44 -2.059,8.11 0.375,9.9 2.418,1.8 6.649,-0.99 8.438,-3.42 l 16.347,-22.36 c 4.438,-6.03 6.18,-13.7 4.793,-21.05 -1.387,-7.34 -5.812,-13.85 -12.137,-17.85 -0.531,-0.33 -1.085,-0.56 -1.664,-0.69" /><path
             id="path156"
             style="fill:#331616;fill-opacity:1;fill-rule:nonzero;stroke:none"
             d="m 2298.34,2641.36 c -5.43,-0.13 -9.97,4.21 -10.1,9.64 l -0.2,8.96 c -0.13,5.43 4.22,9.97 9.64,10.09 5.43,0.13 9.97,-4.21 10.1,-9.64 l 0.2,-8.96 c 0.13,-5.43 -4.21,-9.97 -9.64,-10.09" /><path
             id="path158"
             style="fill:#64321f;fill-opacity:1;fill-rule:nonzero;stroke:none"
             d="m 2289.42,2701 c -2.43,0.19 -4.5,2.2 -4.93,5.02 -0.49,3.36 3.3,9.37 6.28,10.01 6.66,1.42 11.52,1.82 18.29,1.98 8.78,0.2 11.46,-0.07 19.95,-2.55 6.03,-1.76 11.27,-6.38 10.61,-9.73 -0.64,-3.35 -3.58,-5.45 -6.51,-4.87 -7.86,1.78 -15.88,2.58 -23.87,2.4 -6.16,-0.14 -12.36,-0.87 -18.43,-2.17 -0.48,-0.09 -0.94,-0.13 -1.39,-0.09" /><path
             id="path160"
             style="fill:#331616;fill-opacity:1;fill-rule:nonzero;stroke:none"
             d="m 2165.38,2635.18 c 5.43,0.15 9.75,4.71 9.6,10.14 l -0.25,8.96 c -0.15,5.43 -4.72,9.75 -10.14,9.59 -5.43,-0.14 -9.75,-4.71 -9.6,-10.14 l 0.25,-8.96 c 0.15,-5.43 4.72,-9.74 10.14,-9.59" /><path
             id="path162"
             style="fill:#64321f;fill-opacity:1;fill-rule:nonzero;stroke:none"
             d="m 2195.41,2695.81 c 2.4,0.32 4.37,2.42 4.65,5.26 0.34,3.38 -3.82,8.04 -6.83,8.53 -6.72,1.08 -11.69,1.7 -18.47,1.51 -8.78,-0.25 -11.55,0.72 -19.82,-2.38 -6.17,-2.32 -10.73,-7.43 -9.92,-10.74 0.82,-3.32 3.86,-5.26 6.75,-4.53 7.76,2.17 15.74,3.38 23.72,3.61 6.16,0.17 12.4,-0.25 18.52,-1.24 0.47,-0.07 0.94,-0.08 1.4,-0.02" /><path
             id="path164"
             style="fill:#ffffff;fill-opacity:1;fill-rule:nonzero;stroke:none"
             d="m 2262.2,2537.32 -28.31,-0.94 c -19.45,-0.65 -35.73,14.6 -36.38,34.04 l 98.73,3.27 c 0.65,-19.45 -14.6,-35.73 -34.04,-36.37" /><path
             id="path166"
             style="fill:#aa6b3a;fill-opacity:1;fill-rule:nonzero;stroke:none"
             d="m 2244.8,2591.39 c 2.25,0.24 6.13,0.1 6.67,2.44 0.66,2.94 -3.1,7.66 -6.04,8.32 -4.41,1.01 -8.09,3.72 -10.36,7.63 -2.27,3.91 -2.79,8.44 -1.47,12.77 l 7.97,26.52 c 0.87,2.9 -0.76,8.34 -3.64,9.22 -2.89,0.89 -5.95,-3.15 -6.82,-6.03 l -7.98,-26.53 c -2.18,-7.16 -1.27,-14.97 2.48,-21.44 3.76,-6.47 10.09,-11.13 17.38,-12.79 0.62,-0.14 1.22,-0.18 1.81,-0.11" /><path
             id="path168"
             style="fill:#64321f;fill-opacity:1;fill-rule:nonzero;stroke:none"
             d="m 2141.26,2718.84 h -32.6 l 13.39,90.22 h 109.44 c 0,-49.83 -40.39,-90.22 -90.23,-90.22" /><path
             id="path170"
             style="fill:#ebebea;fill-opacity:1;fill-rule:nonzero;stroke:none"
             d="m 2720.86,2674.3 c 98.77,-3.5 197.28,70.35 233.96,161.81 48.74,121.51 -6.77,260.3 47.97,382.63 38.96,87.06 90.57,161.24 180.79,204.89 132.25,63.98 345.31,100.41 493.83,105.92 144.9,5.38 308.87,-35.15 443.92,-89.85 136.97,-55.48 203.32,-157.49 243.57,-297.69 67.46,-234.94 42.79,-414.94 -183.74,-503.85 -109.94,-43.16 -239.46,-76.53 -359.66,-60.29 -79.87,10.8 -149.45,30.49 -233.69,20.53 -120.18,-14.2 -192.84,-48.19 -290.57,15.66 -33.42,21.83 -64.85,49.8 -100.35,68.08 -89.14,45.89 -158.69,37.36 -242.29,-7.42 -104.37,-55.92 -152.28,-71.09 -233.74,-0.42" /><path
             id="path172"
             style="fill:#6e2893;fill-opacity:1;fill-rule:nonzero;stroke:none"
             d="m 3356.88,3123.18 21.54,105.39 h 24.13 l -32.3,-140 h -23.28 l -26.63,102.21 -27.21,-102.21 h -23.36 l -32.31,140 h 24.13 l 21.73,-105.19 26.73,105.19 h 20.38 l 26.45,-105.39" /><path
             id="path174"
             style="fill:#6e2893;fill-opacity:1;fill-rule:nonzero;stroke:none"
             d="m 3451.39,3105.4 c 4.62,0 8.95,1.12 13.03,3.36 4.07,2.25 7.13,5.26 9.19,9.04 v 19.61 h -12.6 c -8.65,0 -15.17,-1.5 -19.52,-4.51 -4.36,-3.02 -6.54,-7.28 -6.54,-12.79 0,-4.49 1.49,-8.06 4.47,-10.72 2.98,-2.66 6.97,-3.99 11.97,-3.99 z m 25.67,-16.83 c -1.02,1.99 -1.92,5.22 -2.69,9.71 -7.43,-7.76 -16.54,-11.63 -27.31,-11.63 -10.45,0 -18.97,2.98 -25.57,8.94 -6.61,5.96 -9.91,13.33 -9.91,22.12 0,11.08 4.12,19.59 12.36,25.52 8.24,5.93 20.02,8.9 35.34,8.9 h 14.33 v 6.82 c 0,5.39 -1.52,9.7 -4.53,12.94 -3.01,3.23 -7.59,4.85 -13.75,4.85 -5.32,0 -9.67,-1.33 -13.07,-3.99 -3.4,-2.66 -5.1,-6.04 -5.1,-10.14 h -23.36 c 0,5.7 1.89,11.04 5.66,16 3.79,4.98 8.93,8.87 15.44,11.69 6.51,2.82 13.76,4.23 21.78,4.23 12.18,0 21.89,-3.07 29.13,-9.18 7.25,-6.12 10.96,-14.73 11.15,-25.82 v -46.92 c 0,-9.36 1.32,-16.83 3.95,-22.4 v -1.64 h -23.85" /><path
             id="path176"
             style="fill:#6e2893;fill-opacity:1;fill-rule:nonzero;stroke:none"
             d="m 3543.12,3192.61 0.67,-12.02 c 7.7,9.29 17.78,13.94 30.28,13.94 21.67,0 32.7,-12.4 33.08,-37.21 v -68.75 h -23.36 v 67.4 c 0,6.6 -1.42,11.49 -4.28,14.67 -2.85,3.17 -7.52,4.76 -13.99,4.76 -9.42,0 -16.45,-4.27 -21.06,-12.79 v -74.04 h -23.36 v 104.04 h 22.02" /><path
             id="path178"
             style="fill:#6e2893;fill-opacity:1;fill-rule:nonzero;stroke:none"
             d="m 3652.63,3192.61 0.67,-12.02 c 7.7,9.29 17.79,13.94 30.29,13.94 21.67,0 32.69,-12.4 33.07,-37.21 v -68.75 h -23.36 v 67.4 c 0,6.6 -1.42,11.49 -4.27,14.67 -2.86,3.17 -7.52,4.76 -14,4.76 -9.42,0 -16.44,-4.27 -21.05,-12.79 v -74.04 h -23.37 v 104.04 h 22.02" /><path
             id="path180"
             style="fill:#6e2893;fill-opacity:1;fill-rule:nonzero;stroke:none"
             d="m 3776.95,3105.4 c 4.61,0 8.95,1.12 13.02,3.36 4.07,2.25 7.14,5.26 9.19,9.04 v 19.61 h -12.6 c -8.65,0 -15.16,-1.5 -19.52,-4.51 -4.35,-3.02 -6.53,-7.28 -6.53,-12.79 0,-4.49 1.48,-8.06 4.46,-10.72 2.99,-2.66 6.98,-3.99 11.98,-3.99 z m 25.67,-16.83 c -1.03,1.99 -1.92,5.22 -2.7,9.71 -7.43,-7.76 -16.53,-11.63 -27.3,-11.63 -10.45,0 -18.98,2.98 -25.58,8.94 -6.6,5.96 -9.9,13.33 -9.9,22.12 0,11.08 4.12,19.59 12.35,25.52 8.25,5.93 20.02,8.9 35.35,8.9 h 14.32 v 6.82 c 0,5.39 -1.51,9.7 -4.52,12.94 -3.02,3.23 -7.6,4.85 -13.75,4.85 -5.32,0 -9.68,-1.33 -13.08,-3.99 -3.39,-2.66 -5.09,-6.04 -5.09,-10.14 h -23.36 c 0,5.7 1.88,11.04 5.66,16 3.79,4.98 8.93,8.87 15.44,11.69 6.5,2.82 13.76,4.23 21.78,4.23 12.18,0 21.88,-3.07 29.13,-9.18 7.25,-6.12 10.96,-14.73 11.15,-25.82 v -46.92 c 0,-9.36 1.32,-16.83 3.95,-22.4 v -1.64 h -23.85" /><path
             id="path182"
             style="fill:#6e2893;fill-opacity:1;fill-rule:nonzero;stroke:none"
             d="m 3915.21,3139.34 c 0,-10.45 2.13,-18.67 6.39,-24.66 4.26,-6 10.18,-9 17.74,-9 9.42,0 16.41,4.04 20.96,12.12 v 45.77 c -4.42,7.88 -11.34,11.83 -20.77,11.83 -7.69,0 -13.67,-3.05 -17.93,-9.14 -4.26,-6.09 -6.39,-15.06 -6.39,-26.92 z m -23.27,2.02 c 0,16.15 3.79,29.05 11.39,38.7 7.6,9.64 17.68,14.47 30.25,14.47 11.85,0 21.18,-4.13 27.97,-12.4 l 1.06,10.48 h 21.05 v -100.87 c 0,-13.65 -4.24,-24.42 -12.73,-32.31 -8.5,-7.88 -19.95,-11.82 -34.38,-11.82 -7.62,0 -15.07,1.59 -22.35,4.76 -7.27,3.17 -12.81,7.33 -16.59,12.45 l 11.06,14.04 c 7.18,-8.53 16.02,-12.79 26.54,-12.79 7.75,0 13.87,2.1 18.37,6.3 4.48,4.2 6.72,10.37 6.72,18.51 v 7.02 c -6.72,-7.5 -15.71,-11.25 -26.92,-11.25 -12.18,0 -22.13,4.83 -29.85,14.52 -7.73,9.68 -11.59,23.07 -11.59,40.19" /><path
             id="path184"
             style="fill:#6e2893;fill-opacity:1;fill-rule:nonzero;stroke:none"
             d="m 4026.64,3139.53 c 0,-10.71 2.22,-19.08 6.64,-25.14 4.43,-6.06 10.58,-9.09 18.46,-9.09 7.88,0 14.02,3.08 18.42,9.23 4.38,6.15 6.58,15.16 6.58,27.02 0,10.51 -2.26,18.85 -6.78,25 -4.52,6.15 -10.65,9.23 -18.42,9.23 -7.62,0 -13.68,-3.03 -18.16,-9.08 -4.49,-6.06 -6.74,-15.12 -6.74,-27.17 z m -23.36,2.02 c 0,10.19 2.02,19.38 6.06,27.55 4.04,8.17 9.71,14.45 17.02,18.84 7.3,4.39 15.7,6.59 25.18,6.59 14.05,0 25.44,-4.52 34.19,-13.56 8.75,-9.04 13.48,-21.02 14.18,-35.96 l 0.1,-5.48 c 0,-10.26 -1.97,-19.42 -5.92,-27.5 -3.94,-8.07 -9.58,-14.32 -16.92,-18.75 -7.33,-4.42 -15.81,-6.63 -25.43,-6.63 -14.68,0 -26.43,4.89 -35.23,14.66 -8.82,9.78 -13.23,22.8 -13.23,39.09 v 1.15" /><path
             id="path186"
             style="fill:#6e2893;fill-opacity:1;fill-rule:nonzero;stroke:none"
             d="m 3302.55,2923.57 c 0,-10.58 2.04,-18.83 6.11,-24.76 4.07,-5.93 9.86,-8.9 17.36,-8.9 9.55,0 16.53,4.27 20.95,12.79 v 44.43 c -4.29,8.32 -11.22,12.5 -20.77,12.5 -7.56,0 -13.4,-3 -17.5,-9 -4.1,-5.99 -6.15,-15.01 -6.15,-27.06 z m -23.36,2.02 c 0,16.02 3.71,28.89 11.15,38.6 7.44,9.71 17.41,14.57 29.91,14.57 11.02,0 19.93,-3.85 26.72,-11.54 v 53.27 h 23.37 V 2872.8 h -21.15 l -1.16,10.77 c -6.98,-8.46 -16.31,-12.69 -27.98,-12.69 -12.18,0 -22.03,4.9 -29.56,14.71 -7.54,9.81 -11.3,23.14 -11.3,40" /><path
             id="path188"
             style="fill:#6e2893;fill-opacity:1;fill-rule:nonzero;stroke:none"
             d="m 3431.2,2889.63 c 4.62,0 8.96,1.12 13.03,3.36 4.07,2.24 7.14,5.26 9.19,9.04 v 19.61 h -12.6 c -8.65,0 -15.16,-1.5 -19.52,-4.51 -4.35,-3.02 -6.53,-7.28 -6.53,-12.79 0,-4.49 1.48,-8.06 4.46,-10.73 2.99,-2.66 6.97,-3.98 11.97,-3.98 z m 25.68,-16.83 c -1.03,1.99 -1.93,5.22 -2.7,9.71 -7.43,-7.76 -16.53,-11.63 -27.3,-11.63 -10.45,0 -18.98,2.98 -25.58,8.94 -6.6,5.96 -9.9,13.33 -9.9,22.11 0,11.09 4.12,19.6 12.35,25.53 8.24,5.93 20.02,8.9 35.34,8.9 h 14.33 v 6.82 c 0,5.39 -1.51,9.7 -4.52,12.93 -3.02,3.24 -7.6,4.86 -13.75,4.86 -5.32,0 -9.68,-1.33 -13.08,-3.99 -3.4,-2.66 -5.1,-6.04 -5.1,-10.14 h -23.35 c 0,5.7 1.88,11.04 5.66,16 3.79,4.97 8.92,8.86 15.44,11.69 6.5,2.81 13.76,4.23 21.78,4.23 12.17,0 21.88,-3.06 29.13,-9.19 7.24,-6.12 10.95,-14.72 11.15,-25.81 v -46.92 c 0,-9.36 1.32,-16.83 3.94,-22.41 v -1.63 h -23.84" /><path
             id="path190"
             style="fill:#6e2893;fill-opacity:1;fill-rule:nonzero;stroke:none"
             d="m 3522.93,2976.83 0.68,-12.01 c 7.69,9.29 17.78,13.94 30.28,13.94 21.67,0 32.69,-12.4 33.07,-37.21 v -68.75 h -23.35 v 67.4 c 0,6.6 -1.43,11.49 -4.28,14.66 -2.85,3.18 -7.52,4.77 -14,4.77 -9.42,0 -16.44,-4.27 -21.05,-12.79 v -74.04 h -23.37 v 104.03 h 22.02" /><path
             id="path192"
             style="fill:#6e2893;fill-opacity:1;fill-rule:nonzero;stroke:none"
             d="m 3653.5,2889.53 c 5.83,0 10.67,1.7 14.52,5.1 3.85,3.39 5.9,7.59 6.15,12.59 h 22.02 c -0.26,-6.47 -2.27,-12.52 -6.06,-18.12 -3.78,-5.61 -8.91,-10.05 -15.38,-13.32 -6.48,-3.27 -13.46,-4.9 -20.96,-4.9 -14.55,0 -26.09,4.71 -34.62,14.13 -8.52,9.42 -12.78,22.43 -12.78,39.04 v 2.4 c 0,15.83 4.23,28.51 12.68,38.03 8.47,9.52 20,14.28 34.62,14.28 12.38,0 22.45,-3.61 30.24,-10.82 7.79,-7.21 11.87,-16.68 12.26,-28.41 h -22.02 c -0.25,5.96 -2.29,10.86 -6.1,14.71 -3.82,3.85 -8.67,5.77 -14.57,5.77 -7.56,0 -13.4,-2.74 -17.5,-8.22 -4.1,-5.49 -6.18,-13.8 -6.25,-24.95 v -3.75 c 0,-11.29 2.04,-19.7 6.11,-25.24 4.06,-5.55 9.95,-8.32 17.64,-8.32" /><path
             id="path194"
             style="fill:#6e2893;fill-opacity:1;fill-rule:nonzero;stroke:none"
             d="m 3738.69,2872.8 h -23.37 v 104.03 h 23.37 z m -24.8,131.06 c 0,3.58 1.13,6.56 3.41,8.93 2.27,2.38 5.52,3.57 9.76,3.57 4.23,0 7.5,-1.19 9.81,-3.57 2.3,-2.37 3.45,-5.35 3.45,-8.93 0,-3.53 -1.15,-6.47 -3.45,-8.81 -2.31,-2.34 -5.58,-3.51 -9.81,-3.51 -4.24,0 -7.49,1.17 -9.76,3.51 -2.28,2.34 -3.41,5.28 -3.41,8.81" /><path
             id="path196"
             style="fill:#6e2893;fill-opacity:1;fill-rule:nonzero;stroke:none"
             d="m 3785.8,2976.83 0.68,-12.01 c 7.69,9.29 17.78,13.94 30.28,13.94 21.67,0 32.69,-12.4 33.08,-37.21 v -68.75 h -23.36 v 67.4 c 0,6.6 -1.43,11.49 -4.28,14.66 -2.85,3.18 -7.52,4.77 -14,4.77 -9.42,0 -16.44,-4.27 -21.05,-12.79 v -74.04 h -23.37 v 104.03 h 22.02" /><path
             id="path198"
             style="fill:#6e2893;fill-opacity:1;fill-rule:nonzero;stroke:none"
             d="m 3892.81,2923.57 c 0,-10.45 2.13,-18.67 6.4,-24.67 4.26,-5.99 10.18,-8.99 17.74,-8.99 9.42,0 16.41,4.04 20.96,12.12 v 45.77 c -4.42,7.88 -11.35,11.83 -20.77,11.83 -7.69,0 -13.67,-3.05 -17.93,-9.14 -4.27,-6.09 -6.4,-15.06 -6.4,-26.92 z m -23.27,2.02 c 0,16.15 3.8,29.05 11.4,38.7 7.6,9.64 17.68,14.47 30.24,14.47 11.86,0 21.19,-4.13 27.98,-12.4 l 1.06,10.47 h 21.05 v -100.86 c 0,-13.65 -4.25,-24.42 -12.73,-32.31 -8.5,-7.88 -19.95,-11.82 -34.38,-11.82 -7.62,0 -15.08,1.59 -22.35,4.76 -7.28,3.17 -12.81,7.32 -16.59,12.45 l 11.06,14.04 c 7.18,-8.53 16.02,-12.79 26.53,-12.79 7.76,0 13.88,2.1 18.37,6.3 4.49,4.2 6.73,10.37 6.73,18.51 v 7.02 c -6.73,-7.5 -15.71,-11.25 -26.92,-11.25 -12.18,0 -22.13,4.83 -29.86,14.52 -7.72,9.67 -11.59,23.07 -11.59,40.19" /><path
             id="path200"
             style="fill:#6e2893;fill-opacity:1;fill-rule:nonzero;stroke:none"
             d="m 4005.31,2884 c 0,3.77 1.19,6.82 3.56,9.15 2.37,2.33 5.58,3.5 9.62,3.5 4.1,0 7.33,-1.2 9.71,-3.6 2.37,-2.39 3.55,-5.41 3.55,-9.05 0,-3.51 -1.15,-6.45 -3.46,-8.81 -2.31,-2.36 -5.57,-3.54 -9.8,-3.54 -4.24,0 -7.49,1.18 -9.77,3.54 -2.27,2.36 -3.41,5.3 -3.41,8.81 z m 1.64,29.86 c 0,8.53 1.05,15.33 3.17,20.4 2.12,5.07 6.3,10.63 12.55,16.7 6.25,6.06 10.2,10.37 11.87,12.94 2.56,3.9 3.85,8.13 3.85,12.67 0,6.02 -1.49,10.61 -4.47,13.78 -2.98,3.17 -7.36,4.76 -13.13,4.76 -5.51,0 -9.95,-1.56 -13.32,-4.66 -3.36,-3.09 -5.05,-7.29 -5.05,-12.59 h -23.36 c 0.13,11.35 3.99,20.34 11.59,26.94 7.59,6.61 17.64,9.92 30.14,9.92 12.88,0 22.93,-3.27 30.14,-9.82 7.22,-6.54 10.82,-15.69 10.82,-27.43 0,-10.46 -4.87,-20.76 -14.61,-30.89 l -11.83,-11.65 c -4.23,-4.81 -6.41,-11.83 -6.54,-21.07 h -21.82" /></g></g></g></g></svg>