<?xml version="1.0" encoding="UTF-8" standalone="no"?>
<svg
   xmlns:dc="http://purl.org/dc/elements/1.1/"
   xmlns:cc="http://creativecommons.org/ns#"
   xmlns:rdf="http://www.w3.org/1999/02/22-rdf-syntax-ns#"
   xmlns:svg="http://www.w3.org/2000/svg"
   xmlns="http://www.w3.org/2000/svg"
   viewBox="0 0 618.03998 152.25333"
   height="152.25333"
   width="618.03998"
   xml:space="preserve"
   id="svg2"
   version="1.1"><metadata
     id="metadata8"><rdf:RDF><cc:Work
         rdf:about=""><dc:format>image/svg+xml</dc:format><dc:type
           rdf:resource="http://purl.org/dc/dcmitype/StillImage" /></cc:Work></rdf:RDF></metadata><defs
     id="defs6"><clipPath
       id="clipPath20"
       clipPathUnits="userSpaceOnUse"><path
         id="path18"
         d="M 0,0 H 4635 V 1141.92 H 0 Z" /></clipPath></defs><g
     transform="matrix(1.3333333,0,0,-1.3333333,0,152.25333)"
     id="g10"><g
       transform="scale(0.1)"
       id="g12"><g
         id="g14"><g
           clip-path="url(#clipPath20)"
           id="g16"><path
             id="path22"
             style="fill:#ffffff;fill-opacity:1;fill-rule:nonzero;stroke:none"
             d="m 1282.04,628.563 c -52.64,24.777 -98.1,46.183 -98.1,89.609 0,36.808 27.13,60.59 69.11,60.59 38.31,0 66.19,-19.66 85.2,-60.09 l 2.56,-5.414 81.93,36.519 -1.83,5.301 c -6.67,19.199 -46,115 -166.31,115 -101.07,0 -168.98,-61.355 -168.98,-152.68 0,-100.218 76.87,-136.687 144.7,-168.875 53.44,-25.375 99.6,-47.265 99.6,-94.804 0,-41.203 -28.86,-66.797 -75.32,-66.797 -63.4,0 -90.2,45.633 -100.54,72.84 l -2.34,6.152 -83.8,-39.238 1.74,-5.164 c 10.07,-29.719 52.87,-126.692 181.06,-126.692 107.1,0 179.06,66.348 179.06,165.098 0,99.094 -78.49,136.039 -147.74,168.645" /><path
             id="path24"
             style="fill:#ffffff;fill-opacity:1;fill-rule:nonzero;stroke:none"
             d="m 2168.53,641.242 c 52.75,0 89.45,-29.73 102.8,-42.508 l 6.79,-6.515 30.19,84.156 -3.17,2.73 c -26.9,23.329 -72.85,51.129 -138.94,51.129 -123.74,0 -217.06,-93.984 -217.06,-218.605 0,-126.66 91.62,-218.606 217.84,-218.606 71.75,0 120.56,36.329 138.21,51.946 l 3.06,2.703 -28.39,82.433 -6.87,-6.242 c -31.67,-28.797 -65.77,-43.398 -101.36,-43.398 -71.23,0 -124.95,56.394 -124.95,131.164 0,76.316 50.1,129.613 121.85,129.613" /><path
             id="path26"
             style="fill:#ffffff;fill-opacity:1;fill-rule:nonzero;stroke:none"
             d="m 4164.16,387.074 c -0.06,0 -9.04,-0.75 -15.78,-0.75 -41.73,0 -62.91,10.86 -62.91,70.188 v 181.113 h 82.21 v 81.453 h -82.21 v 83.953 h -95.99 v -83.953 h -44.98 v -81.453 h 44.98 v -168.02 c 0,-73.027 13.9,-170.125 134.09,-170.125 26.68,0 41.72,3.075 42.35,3.204 l 4.86,1.011 v 83.93 l -6.62,-0.551" /><path
             id="path28"
             style="fill:#ffffff;fill-opacity:1;fill-rule:nonzero;stroke:none"
             d="m 597.055,436.52 c -17.063,38.867 -41.895,73.605 -72.45,102.285 -6.222,5.84 -12.609,11.394 -19.265,16.679 -6.828,5.457 -13.875,10.629 -21.145,15.473 -35.343,23.566 -75.699,40.078 -119.187,47.625 -8.153,1.43 -16.461,2.531 -24.832,3.305 -8.367,0.765 -16.844,1.211 -25.379,1.316 -1.047,0 -2.09,0.055 -3.141,0.055 -27.746,0 -54.222,5.508 -78.394,15.472 -6.879,2.809 -13.598,5.946 -20.039,9.469 -4.184,2.258 -8.203,4.68 -12.219,7.211 -3.25,2.098 -6.5,4.297 -9.695,6.555 -7.321,5.226 -14.258,10.957 -20.809,17.062 -40.52,37.825 -65.898,91.614 -65.898,151.289 0,114.129 92.875,207.004 207.054,207.004 77.461,0 145.067,-42.777 180.574,-105.98 7.598,0.496 15.196,0.824 22.907,0.824 32.922,0 64.797,-4.512 95.078,-12.828 C 571.844,1047.95 452.539,1141.92 311.656,1141.92 139.781,1141.92 0,1002.14 0,830.316 0,740.742 37.9883,659.98 98.6563,603.109 c 6.2227,-5.832 12.6637,-11.394 19.2697,-16.675 6.828,-5.457 13.871,-10.633 21.137,-15.477 4.957,-3.301 10.019,-6.437 15.14,-9.406 8.203,-4.844 16.68,-9.367 25.383,-13.442 8.422,-3.961 16.957,-7.593 25.766,-10.789 33.195,-12.05 68.98,-18.664 106.304,-18.664 1.051,0 2.094,-0.054 3.192,-0.054 8.922,-0.168 17.73,-0.825 26.32,-2.09 9.801,-1.379 19.379,-3.528 28.629,-6.223 6.933,-2.031 13.652,-4.402 20.203,-7.098 11.285,-4.628 22.074,-10.246 32.262,-16.679 28.129,-17.844 51.64,-42.285 68.433,-71.133 7.981,-1.274 16.125,-1.926 24.442,-1.926 30.004,0 58.027,8.418 81.918,23.067" /><path
             id="path30"
             style="fill:#ffffff;fill-opacity:1;fill-rule:nonzero;stroke:none"
             d="M 610.215,222.586 C 571.844,93.9688 452.539,0 311.656,0 139.781,0 0,139.781 0,311.598 c 0,89.582 37.9883,170.343 98.6563,227.207 19.2697,-14.09 40.0277,-26.309 61.9377,-36.446 2.586,-13.425 5.832,-26.64 9.906,-39.472 -40.52,-37.821 -65.898,-91.614 -65.898,-151.289 0,-114.121 92.875,-206.996 207.054,-206.996 77.461,0 145.067,42.777 180.574,105.98 7.598,-0.496 15.196,-0.828 22.907,-0.828 32.922,0 64.797,4.512 95.078,12.832" /><path
             id="path32"
             style="fill:#ffffff;fill-opacity:1;fill-rule:nonzero;stroke:none"
             d="m 621.445,278.023 c -33.199,-12.121 -68.984,-18.718 -106.308,-18.718 -1.043,0 -2.094,0.105 -3.141,0.105 -8.531,0.059 -17.012,0.496 -25.379,1.27 -8.422,0.769 -16.679,1.867 -24.883,3.3 -104.16,18.059 -190.703,87.981 -232.05,182.063 -3.36,7.652 -6.387,15.418 -9.082,23.34 -1.43,4.129 -2.809,8.316 -4.079,12.5 6.332,-1.711 12.668,-3.242 19.11,-4.68 24.547,-5.234 49.93,-8.098 76.023,-8.098 8.317,0 16.465,-0.652 24.449,-1.921 26.368,-45.364 69.477,-79.825 120.84,-94.911 9.305,-2.699 18.879,-4.796 28.625,-6.222 8.645,-1.211 17.453,-1.922 26.375,-2.039 1.043,-0.051 2.149,-0.11 3.192,-0.11 35.621,0 69.144,9.036 98.433,24.942 7.598,4.133 14.868,8.75 21.86,13.761 7.32,5.235 14.312,10.958 20.867,17.071 40.516,37.82 65.894,91.66 65.894,151.281 0,59.625 -25.378,113.469 -65.894,151.289 -6.555,6.109 -13.547,11.781 -20.867,17.067 -6.992,5.007 -14.262,9.632 -21.86,13.765 -29.289,15.856 -62.812,24.938 -98.433,24.938 -1.043,0 -2.149,-0.11 -3.192,-0.11 -8.922,-0.113 -17.73,-0.824 -26.375,-2.035 -9.746,-1.43 -19.32,-3.527 -28.625,-6.281 -51.363,-15.027 -94.472,-49.492 -120.84,-94.852 -0.554,-0.937 -1.05,-1.816 -1.597,-2.754 -7.543,0.493 -15.195,0.825 -22.852,0.825 -30,0 -58.082,8.421 -81.972,23.066 41.347,94.086 127.945,164.004 232.05,182.066 8.204,1.43 16.461,2.528 24.883,3.301 8.367,0.77 16.848,1.211 25.379,1.266 1.047,0 2.098,0.109 3.141,0.109 37.324,0 73.109,-6.605 106.308,-18.719 8.75,-3.195 17.34,-6.828 25.762,-10.734 8.648,-4.074 17.125,-8.59 25.383,-13.434 92.164,-54.171 154.203,-154.367 154.203,-268.773 0,-114.457 -62.039,-214.594 -154.203,-268.773 -8.258,-4.844 -16.735,-9.356 -25.383,-13.426 -8.422,-3.965 -17.012,-7.539 -25.762,-10.735" /><path
             id="path34"
             style="fill:#ffffff;fill-opacity:1;fill-rule:nonzero;stroke:none"
             d="m 2411.1,885.785 c 16.36,0 30.39,-5.926 42.1,-17.777 11.71,-11.852 17.55,-26.211 17.55,-43.067 0,-16.64 -5.79,-30.824 -17.38,-42.562 -11.59,-11.738 -25.45,-17.602 -41.58,-17.602 -16.58,0 -30.73,5.985 -42.44,17.95 -11.7,11.961 -17.54,26.488 -17.54,43.582 0,16.406 5.79,30.421 17.37,42.043 11.59,11.621 25.57,17.433 41.92,17.433" /><path
             id="path36"
             style="fill:#ffffff;fill-opacity:1;fill-rule:nonzero;stroke:none"
             d="m 2358.98,304.098 h 104.211 V 719.371 H 2358.98 Z" /><path
             id="path38"
             style="fill:#ffffff;fill-opacity:1;fill-rule:nonzero;stroke:none"
             d="m 3520.2,885.785 c 16.36,0 30.39,-5.926 42.11,-17.777 11.69,-11.852 17.53,-26.211 17.53,-43.067 0,-16.64 -5.79,-30.824 -17.38,-42.562 -11.59,-11.738 -25.45,-17.602 -41.57,-17.602 -16.59,0 -30.74,5.985 -42.44,17.95 -11.7,11.961 -17.55,26.488 -17.55,43.582 0,16.406 5.79,30.421 17.37,42.043 11.59,11.621 25.57,17.433 41.93,17.433" /><path
             id="path40"
             style="fill:#ffffff;fill-opacity:1;fill-rule:nonzero;stroke:none"
             d="m 3468.09,304.098 h 104.199 V 719.371 H 3468.09 Z" /><path
             id="path42"
             style="fill:#ffffff;fill-opacity:1;fill-rule:nonzero;stroke:none"
             d="m 3848.01,885.785 c 16.36,0 30.38,-5.926 42.1,-17.777 11.7,-11.852 17.54,-26.211 17.54,-43.067 0,-16.64 -5.78,-30.824 -17.39,-42.562 -11.59,-11.738 -25.44,-17.602 -41.57,-17.602 -16.59,0 -30.74,5.985 -42.44,17.95 -11.7,11.961 -17.55,26.488 -17.55,43.582 0,16.406 5.79,30.421 17.37,42.043 11.6,11.621 25.57,17.433 41.94,17.433" /><path
             id="path44"
             style="fill:#ffffff;fill-opacity:1;fill-rule:nonzero;stroke:none"
             d="m 3795.89,304.098 h 104.199 V 719.371 H 3795.89 Z" /><path
             id="path46"
             style="fill:#ffffff;fill-opacity:1;fill-rule:nonzero;stroke:none"
             d="m 3632.27,304.098 h 104.211 V 879.684 H 3632.27 Z" /><path
             id="path48"
             style="fill:#ffffff;fill-opacity:1;fill-rule:nonzero;stroke:none"
             d="m 4195.12,719.371 h 106.47 l 107.87,-260.555 119.04,260.555 h 106.78 L 4375.21,152.184 h -107.62 l 85.38,182.902 -157.85,384.285" /><path
             id="path50"
             style="fill:#ffffff;fill-opacity:1;fill-rule:nonzero;stroke:none"
             d="m 2996.04,304.098 h 7.76 l -7.76,20.441 v -20.441" /><path
             id="path52"
             style="fill:#ffffff;fill-opacity:1;fill-rule:nonzero;stroke:none"
             d="m 3289.38,423.57 c -21.76,-23.164 -48.55,-34.734 -80.35,-34.734 -32.84,0 -60.06,11.387 -81.69,34.156 -21.63,22.778 -32.44,52.61 -32.44,89.504 0,36.133 10.81,65.395 32.44,87.797 21.63,22.391 48.85,33.59 81.69,33.59 32.56,0 59.54,-11.399 80.91,-34.168 21.39,-22.77 32.06,-51.977 32.06,-87.602 0,-35.867 -10.87,-65.398 -32.62,-88.543 z m 79.58,245.039 c -37.92,40.973 -83.98,61.457 -138.18,61.457 -24.94,0 -48.35,-4.714 -70.22,-14.128 -21.89,-9.415 -42.25,-23.536 -61.07,-42.368 V 879.688 H 2996.04 V 613.066 l 100.89,-262.328 2.56,-2.746 c 20.34,-19.344 40.83,-33.269 61.45,-41.797 20.6,-8.511 42.88,-12.781 66.79,-12.781 53.7,0 100.13,20.801 139.31,62.402 39.18,41.614 58.79,93.332 58.79,155.157 0,64.121 -18.96,116.672 -56.87,157.636" /><path
             id="path54"
             style="fill:#ffffff;fill-opacity:1;fill-rule:nonzero;stroke:none"
             d="m 2776.56,716.707 -75.32,-192.758 h 150.21 z m -54.86,148.856 h 108.38 l 215.96,-561.465 h -111.08 l -43.92,115.656 h -229.11 l -45.68,-115.656 h -111.06 l 216.51,561.465" /><path
             id="path56"
             style="fill:#ffffff;fill-opacity:1;fill-rule:nonzero;stroke:none"
             d="m 1691.28,631.969 c -32.38,0 -59.33,-11.258 -80.88,-33.778 -21.54,-22.515 -32.3,-51.339 -32.3,-86.449 0,-36.14 10.64,-65.398 31.93,-87.793 21.27,-22.398 48.23,-33.594 80.85,-33.594 32.63,0 59.78,11.321 81.44,33.977 21.67,22.648 32.51,51.777 32.51,87.41 0,35.617 -10.64,64.563 -31.93,86.828 -21.29,22.266 -48.49,33.399 -81.62,33.399 z m -1.72,98.097 c 39.18,0 76.01,-9.796 110.49,-29.394 34.47,-19.598 61.38,-46.18 80.73,-79.774 19.34,-33.585 29.01,-69.847 29.01,-108.785 0,-39.187 -9.73,-75.828 -29.2,-109.922 -19.47,-34.097 -45.99,-60.75 -79.58,-79.961 -33.59,-19.214 -70.62,-28.816 -111.07,-28.816 -59.56,0 -110.37,21.184 -152.48,63.547 -42.13,42.371 -63.18,93.828 -63.18,154.394 0,64.891 23.79,118.954 71.37,162.215 41.73,37.66 89.71,56.496 143.91,56.496" /></g></g></g></g></svg>