<svg id="Layer_1" data-name="Layer 1" xmlns="http://www.w3.org/2000/svg" viewBox="0 0 426.42 338.22"><defs><style>.cls-1{fill:#fff;}.cls-2{fill:#aeab9e;}.cls-3{fill:#abcf59;}.cls-4{fill:#6c9a45;}.cls-5{fill:#699845;}.cls-6{fill:#7e512a;}.cls-7{fill:#63471f;}.cls-8{fill:#62441e;}.cls-9{fill:#1e2441;}.cls-10{fill:#ef9c4a;}.cls-11{fill:#facab8;}.cls-12{fill:#7c5967;}.cls-13{fill:#23a8ab;}.cls-14{fill:#4e8182;}.cls-15{fill:#f0eadf;}.cls-16{fill:#f8b7a1;}.cls-17{fill:#f7a043;}.cls-18{fill:#272e51;}.cls-19{fill:#f4aa62;}.cls-20{fill:#381614;}.cls-21{fill:#eaab94;}.cls-22{fill:#e7454e;}.cls-23{fill:#da9d42;}.cls-24{fill:#101636;}.cls-25{fill:#e5a84e;}.cls-26{fill:#b0cbd9;}.cls-27{fill:#392416;}.cls-28{fill:#364072;}.cls-29{fill:#a7becb;}</style></defs><title>People</title><path class="cls-1" d="M312.8,127.05c-4.53,0-7.33,5.36-12.68,4.14-2.84-14-5.65-27.92-8.46-41.81,5.69-.41,11.8,2.2,17-2.13,3.15-2.64,6.88-6.15,5.11-10.07-2-4.37-7.23-2.81-11-1.88-7.18,1.76-9.06,8.1-10.94,14.22-1.39-1.06-3.46-3.33-4.06-3-3.75,2.11-1.52,5.69-1,8.4,6.33,32.76,2.46,65.23-1.85,101.11-17.59-28.34-44.4-30.1-70.45-33.64A170.91,170.91,0,0,1,257.69,179c15.31,8.57,26,22.43,25.25,39.81-1.66,38.53-5.89,76.95-9,115.42-.53,6.55-1.64,13.51,8.89,12.53,7.59-.7,16.72,3.26,16.12-11.22-1.14-27.14,1.18-54.51-1.17-81.5-1.91-21.87,7.48-35.87,23.19-47.75,5.79-4.39,12.48-7.59,18.76-11.34l4.21-2.16c-2.15-2-3.83-.93-5.4.83-15,.65-25,12.06-37.64,19-.11-16.69.89-32.39-.62-47.84-1.48-15.06,2.38-26.82,14.18-36.07L315.7,126Z" transform="translate(-95.91 -53.66)"/><path class="cls-1" d="M281.72,90c-3.14-7.5-7.93-11.71-16-11.19-3.71.24-6.67,1.3-5,5.79,2.51,6.71,7.55,10.28,14.78,10C278.47,94.48,282.19,94.36,281.72,90Z" transform="translate(-95.91 -53.66)"/><path class="cls-1" d="M316.42,112.46c6.2,1.74,6.36-1.29,6.44-4.09.25-8.13-4.19-12.74-11.58-15-4.71-1.44-5.94,1.4-5.51,5.1C306.65,106,310.47,111.29,316.42,112.46Z" transform="translate(-95.91 -53.66)"/><path class="cls-1" d="M277,116.7c3.09-.58,7.47-.56,6.34-5-1.71-6.76-6.54-10.83-13.89-10.82-3,0-7.9-.34-7.07,3.94C263.84,112.18,269.24,116.35,277,116.7Z" transform="translate(-95.91 -53.66)"/><path class="cls-1" d="M204.21,185.07c8-.69,12.2-5.53,13.1-13,.42-3.42-2.91-4.07-5.79-3.71-7.51,1-12.65,4.85-13.75,12.58C197,186.11,201.24,184.94,204.21,185.07Z" transform="translate(-95.91 -53.66)"/><path class="cls-1" d="M335.2,165.18c-5,1.21-5.81,5.78-6.43,9.39-1.1,6.42,1.68,12.44,8,14,3.79.9,4.9-4.51,5.56-8.07C343.58,173.78,340.45,169,335.2,165.18Z" transform="translate(-95.91 -53.66)"/><path class="cls-1" d="M382.49,203.78c-2.79-8.31-7.71-12.74-16.22-12.33-3.13.15-5.64,1.24-4.52,4.78,2.43,7.68,7.59,12.08,16.06,11.57C380.65,207.63,383.41,207.21,382.49,203.78Z" transform="translate(-95.91 -53.66)"/><path class="cls-1" d="M351.6,92.34c.29-2.72-.52-5.23-4.31-4.7-7.47,1-12.57,5-14,12.75-.71,3.74.15,6.26,4.84,5.73C346.17,105.22,349.92,100.13,351.6,92.34Z" transform="translate(-95.91 -53.66)"/><path class="cls-1" d="M391.44,172.41c-.48-4.91-4.42-3.47-7.23-3.5-7.66-.09-11.65,4.93-13.42,11.44-1.37,5,3.39,4.7,6.19,4.56C384.75,184.5,389.37,179.9,391.44,172.41Z" transform="translate(-95.91 -53.66)"/><path class="cls-1" d="M327.56,130.26c-3.86,1-10.25,1.21-10,6.42s6.31,7.49,11.5,7.75c4.63.23,11.09-1.3,11.11-5.75C340.19,132.59,333.69,131,327.56,130.26Z" transform="translate(-95.91 -53.66)"/><path class="cls-1" d="M362.56,211.27c-2.38-7.74-6.85-12.12-14.92-11.82-3.3.12-6.93.22-5.42,5.12,2.08,6.76,6.86,10.57,14,10.94C359.27,215.67,362.78,215.63,362.56,211.27Z" transform="translate(-95.91 -53.66)"/><path class="cls-1" d="M225.87,192.12c7.41-1.16,12.38-5.63,13.36-13.15.67-5.11-4.14-3.68-6.9-3.52-7.44.43-11.39,5-12.68,12C218.71,192.56,222.34,192.2,225.87,192.12Z" transform="translate(-95.91 -53.66)"/><path class="cls-1" d="M342.06,113.62c-4.08.24-10.56,1-10.5,5.49.07,6,6.59,8.41,12.25,8.43,4.5,0,11-1.78,10.58-6.49S348.11,113.76,342.06,113.62Z" transform="translate(-95.91 -53.66)"/><path class="cls-1" d="M237.66,199.4c10.4,3.22,16.66-.91,20.22-10.37,1.28-3.4,0-5.17-3.52-5.28C243.73,183.4,239,189.37,237.66,199.4Z" transform="translate(-95.91 -53.66)"/><path class="cls-1" d="M191.53,150.87c-5.07.27-11.37,1-11,5.64.46,5.62,6.34,8.5,12.45,8.39,4.14-.08,10-.85,9.9-5C202.76,153.67,196.68,151.7,191.53,150.87Z" transform="translate(-95.91 -53.66)"/><path class="cls-1" d="M271.42,127.53c-2.23,1-7.78-1.08-6.81,3.56,1.51,7.16,6.51,12,14.77,11.3,2.76-.25,7.71,1,6.37-4.24C284,131.39,279.33,127.25,271.42,127.53Z" transform="translate(-95.91 -53.66)"/><path class="cls-1" d="M294.13,63.17c-2.2-3-1.79-10.15-8.06-9.47-4.54.5-6.12,6.24-6.08,11,.05,5.3,2.07,11.76,7.06,11.59C291.71,76.16,293.67,69.63,294.13,63.17Z" transform="translate(-95.91 -53.66)"/><path class="cls-1" d="M364,169.17c-.62-4.55-1.65-10.83-6.22-10.72-6,.15-7.85,6.4-7.7,12.11.12,4.67,1.63,10.62,6.53,10.22S363.41,174.39,364,169.17Z" transform="translate(-95.91 -53.66)"/><path class="cls-1" d="M223.27,149.92C223,142.35,219,137.44,212,136.36c-5.15-.78-3.38,4.4-3.49,7-.34,7.51,3.88,12.4,11,13.44C224.48,157.53,222.42,152.42,223.27,149.92Z" transform="translate(-95.91 -53.66)"/><path class="cls-1" d="M245.21,154.69c-.39-6.78-4-11.51-10.44-12.56-6.2-1-4.27,4.62-4.2,7.61.14,6.68,3.54,11.43,10.57,11.9C246,162,244.84,157.62,245.21,154.69Z" transform="translate(-95.91 -53.66)"/><path class="cls-1" d="M361.89,187c-.9-.35-1.74-1-2.49-.9s-3-.18-1.83,1.89c.27.47,1.66.55,2.45.4S361.22,187.52,361.89,187Z" transform="translate(-95.91 -53.66)"/><path class="cls-1" d="M352,189.82a14.88,14.88,0,0,0-2.57-.7c-.32,0-.69.53-1,.82.62.41,1.23,1.12,1.87,1.14S351.33,190.33,352,189.82Z" transform="translate(-95.91 -53.66)"/><path class="cls-2" d="M339.72,194.94c-6.29,3.75-13,6.95-18.77,11.34-15.71,11.88-25.1,25.88-23.19,47.75,2.35,27,0,54.36,1.17,81.5.6,14.48-8.53,10.52-16.12,11.22-10.53,1-9.42-6-8.89-12.53,3.13-38.47,7.36-76.89,9-115.42.75-17.38-9.94-31.24-25.25-39.81a170.91,170.91,0,0,0-43.25-16.59c26.05,3.54,52.86,5.3,70.45,33.64,4.31-35.88,8.18-68.35,1.85-101.11-.52-2.71-2.75-6.29,1-8.4.6-.34,2.67,1.93,4.06,3l-.14-.14c2.81,13.89,5.62,27.79,8.46,41.81,5.35,1.22,8.15-4.17,12.68-4.14q.81.83,1.65,1.62c-11.81,9.24-15.67,21-14.19,36.06,1.51,15.45.51,31.15.62,47.84,12.65-6.9,22.59-18.31,37.64-19Z" transform="translate(-95.91 -53.66)"/><path class="cls-3" d="M281.72,90c.47,4.32-3.25,4.44-6.18,4.56-7.23.32-12.27-3.25-14.78-10-1.68-4.49,1.28-5.55,5-5.79C273.79,78.33,278.58,82.54,281.72,90Z" transform="translate(-95.91 -53.66)"/><path class="cls-3" d="M316.42,112.46c-5.95-1.17-9.77-6.45-10.65-14-.43-3.7.8-6.54,5.51-5.1,7.39,2.26,11.83,6.87,11.58,15C322.78,111.17,322.62,114.2,316.42,112.46Z" transform="translate(-95.91 -53.66)"/><path class="cls-4" d="M277,116.7c-7.77-.35-13.17-4.52-14.62-11.88-.83-4.28,4.05-3.93,7.07-3.94,7.35,0,12.18,4.06,13.89,10.82C284.48,116.14,280.1,116.12,277,116.7Z" transform="translate(-95.91 -53.66)"/><path class="cls-3" d="M204.19,185.09c-2.95-.15-7.15,1-6.42-4.13,1.1-7.73,6.24-11.63,13.75-12.58,2.88-.36,6.21.29,5.79,3.71C216.41,179.54,212.17,184.38,204.19,185.09Z" transform="translate(-95.91 -53.66)"/><path class="cls-3" d="M335.2,165.18c5.25,3.84,8.38,8.6,7.16,15.28-.66,3.56-1.77,9-5.56,8.07-6.35-1.52-9.13-7.54-8-14C329.39,171,330.22,166.39,335.2,165.18Z" transform="translate(-95.91 -53.66)"/><path class="cls-3" d="M382.49,203.78c.92,3.43-1.84,3.85-4.68,4-8.47.51-13.63-3.89-16.06-11.57-1.12-3.54,1.39-4.63,4.52-4.78C374.78,191,379.7,195.47,382.49,203.78Z" transform="translate(-95.91 -53.66)"/><path class="cls-4" d="M291.8,89.52c1.88-6.12,3.76-12.46,10.94-14.22,3.76-.93,9-2.49,11,1.88,1.77,3.92-2,7.43-5.11,10.07-5.16,4.33-11.27,1.72-17,2.13Z" transform="translate(-95.91 -53.66)"/><path class="cls-3" d="M351.6,92.34c-1.68,7.79-5.43,12.88-13.5,13.78-4.69.53-5.55-2-4.84-5.73,1.46-7.73,6.56-11.71,14-12.75C351.08,87.11,351.89,89.62,351.6,92.34Z" transform="translate(-95.91 -53.66)"/><path class="cls-4" d="M391.44,172.41c-2.07,7.49-6.69,12.09-14.46,12.5-2.8.14-7.56.45-6.19-4.56,1.77-6.51,5.76-11.53,13.42-11.44C387,168.94,391,167.5,391.44,172.41Z" transform="translate(-95.91 -53.66)"/><path class="cls-3" d="M327.56,130.26c6.13.77,12.63,2.33,12.61,8.42,0,4.45-6.48,6-11.11,5.75-5.19-.26-11.24-2.5-11.5-7.75S323.7,131.29,327.56,130.26Z" transform="translate(-95.91 -53.66)"/><path class="cls-4" d="M362.56,211.27c.22,4.36-3.29,4.4-6.38,4.24-7.1-.37-11.88-4.18-14-10.94-1.51-4.9,2.12-5,5.42-5.12C355.71,199.15,360.18,203.53,362.56,211.27Z" transform="translate(-95.91 -53.66)"/><path class="cls-4" d="M225.87,192.12c-3.53.08-7.16.44-6.22-4.66,1.29-7,5.24-11.58,12.68-12,2.76-.16,7.57-1.59,6.9,3.52C238.25,186.49,233.28,191,225.87,192.12Z" transform="translate(-95.91 -53.66)"/><path class="cls-4" d="M342.06,113.62c6.05.14,11.94,2.69,12.33,7.43s-6.08,6.5-10.58,6.49c-5.66,0-12.18-2.45-12.25-8.43C331.5,114.58,338,113.86,342.06,113.62Z" transform="translate(-95.91 -53.66)"/><path class="cls-3" d="M237.66,199.4c1.33-10,6.07-16,16.7-15.65,3.5.11,4.8,1.88,3.52,5.28C254.32,198.49,248.06,202.62,237.66,199.4Z" transform="translate(-95.91 -53.66)"/><path class="cls-4" d="M191.53,150.87c5.15.83,11.23,2.8,11.35,9,.07,4.16-5.76,4.93-9.9,5-6.11.11-12-2.77-12.45-8.39C180.16,151.85,186.46,151.14,191.53,150.87Z" transform="translate(-95.91 -53.66)"/><path class="cls-3" d="M271.42,127.53c7.91-.28,12.6,3.86,14.33,10.62,1.34,5.25-3.61,4-6.37,4.24-8.26.75-13.26-4.14-14.77-11.3C263.64,126.45,269.19,128.5,271.42,127.53Z" transform="translate(-95.91 -53.66)"/><path class="cls-4" d="M294.13,63.17c-.46,6.46-2.42,13-7.08,13.14-5,.17-7-6.29-7.06-11.59,0-4.78,1.54-10.52,6.08-11C292.34,53,291.93,60.22,294.13,63.17Z" transform="translate(-95.91 -53.66)"/><path class="cls-4" d="M364,169.17c-.56,5.22-2.36,11.19-7.39,11.61s-6.41-5.55-6.53-10.22c-.15-5.71,1.69-12,7.7-12.11C362.32,158.34,363.35,164.62,364,169.17Z" transform="translate(-95.91 -53.66)"/><path class="cls-3" d="M223.27,149.92c-.85,2.5,1.21,7.61-3.77,6.88-7.1-1-11.32-5.93-11-13.44.11-2.6-1.66-7.78,3.49-7C219,137.44,223,142.35,223.27,149.92Z" transform="translate(-95.91 -53.66)"/><path class="cls-5" d="M245.21,154.69c-.37,2.93.81,7.28-4.07,6.95-7-.47-10.43-5.22-10.57-11.9-.07-3-2-8.62,4.2-7.61C241.26,143.18,244.82,147.91,245.21,154.69Z" transform="translate(-95.91 -53.66)"/><path class="cls-2" d="M361.89,187c-.67.53-1.21,1.26-1.87,1.39s-2.18.07-2.45-.4c-1.17-2.07.94-1.78,1.83-1.89S361,186.64,361.89,187Z" transform="translate(-95.91 -53.66)"/><path class="cls-2" d="M352,189.82c-.65.51-1.21,1.29-1.74,1.26s-1.25-.73-1.87-1.14c.35-.29.72-.85,1-.82A14.88,14.88,0,0,1,352,189.82Z" transform="translate(-95.91 -53.66)"/><path class="cls-2" d="M338.52,193.61c1.57-1.76,3.25-2.87,5.4-.83l-4.21,2.16Z" transform="translate(-95.91 -53.66)"/><path class="cls-2" d="M312.8,127.05l2.9-1c-.42.88-.84,1.75-1.25,2.63Q313.61,127.87,312.8,127.05Z" transform="translate(-95.91 -53.66)"/><path class="cls-1" d="M357.16,321.69c-.09,7-.33,14-.17,20.93,0,2-1.74,5.48,2.42,5.58s2.47-3.41,2.51-5.4c.13-7.1,0-14.21-.1-21.31a15.69,15.69,0,0,0,11.12-4.63,3.07,3.07,0,0,0,1.78-1.93c3.23-3.76,4.28-8.28,4.5-13.07.87-18.49-7.89-33.33-18.16-47.57-1.95-2.7-3.68-1.8-5.36.5-5,6.91-8.9,14.48-12.54,22.18-1.93-2.85-3.82-5.73-5.8-8.55-4.77-6.79-5.59-6.74-10,.46a1.8,1.8,0,0,0-.13.43l-1.53,2.13c-6.68,10.47-11.83,21.56-13.15,34.07-1.18,11.12,2.06,25.23,18.22,27.22q.18,12.39.35,24.78a.82.82,0,0,0-.05.3c.05.18.15.35.22.53,3,2,4.43,1.1,4.4-2.4q-.11-11.64-.25-23.27c7.7-.95,13.25-4.81,16.34-12Z" transform="translate(-95.91 -53.66)"/><path class="cls-3" d="M330.81,332.73c-16.16-2-19.4-16.1-18.22-27.22,1.32-12.51,6.47-23.6,13.15-34.07.8-.29,1.84.86,2.35-.17.21-.42-.52-1.29-.82-2a1.8,1.8,0,0,1,.13-.43c4.37-7.2,5.19-7.25,10-.46,2,2.82,3.87,5.7,5.8,8.55l4.91,10.86a3.18,3.18,0,0,1-.08.81c-1.07-.15-2-1.5-3.56-.16l6.21,5.6a1.94,1.94,0,0,0,.95,1.81c.45,2.95.89,5.9,1.34,8.84l.71,2.86q-.92,6.53-1.82,13.06c-3.09,7.21-8.64,11.07-16.34,12-.73-6.65-.88-13.11,5.53-17.53.44-.3.57-1,.84-1.58l.86-.95c.18-.19.54-.51.51-.54-.43-.59-.62-.12-.83.22l-1,.86c-.53.28-1.07.54-1.59.83-1.48.83-2.42,3.66-4.19,2.58s-1.17-3.85-1.24-5.94c-.05-1.55,1.09-2.4,1.95-3.43,1.24-1.49,2.95-2.62,3.53-4.62l.86-.95.86-1,.39-.57-.61.36-1,.86c-.31.3-.63.59-1,.88-2.06.43-2.76,3-4.82,3.35-1.41-4.89.13-9,2.47-12.92.31-.26.72-.51.16-.89,0,0-.35.34-.53.52-.9,0-2.31,3.45-2.63-.34-.42-4.95-.72-9.9-1.06-14.86-.09-.69,0-1.8-.95-1.59-.77.16.07.95.1,1.47,0,4.55.11,9.11-.1,13.65-.05,1.07,1,4.18-2.39,2.64l-.9-.9-1-.86c-.17-.3-.23-.86-.71-.27,0,0,.33.31.51.48l.79,1,.84,1a15.62,15.62,0,0,1,1.91,12.08l-4-2.57-.94-.9-1-.85-1-.81-.55-.36.38.54.9.94.87,1,.87.93a14,14,0,0,0,2.1,2.87c3.92,3.24,2.74,7.21,2.32,11.62l-5.65-4-1-.87-1-.83c-.19-.17-.51-.52-.55-.49-.59.45-.07.6.25.8l.89.94.88.93C330.67,319.49,331.88,325.75,330.81,332.73Z" transform="translate(-95.91 -53.66)"/><path class="cls-5" d="M348.07,287.83,343.16,277c3.64-7.7,7.5-15.27,12.54-22.18,1.68-2.3,3.41-3.2,5.36-.5,10.27,14.24,19,29.08,18.16,47.57-.22,4.79-1.27,9.31-4.5,13.07l-10.58-9.4c1.83,5.72,6.7,7.44,8.8,11.33a15.69,15.69,0,0,1-11.12,4.63c-.93-4.34-2.3-8.7,1.05-12.68.38-.45.81-1.38.15-1.52-4-.85-1.51-4.06-2.33-6a6.83,6.83,0,0,1,2.38-5.63c1.56-1.58,3.63-2.87,4.11-5.33l.36-.53-.54.36c-2.68.28-3.37,3.71-5.81,4.07-2-5,.51-8.91,2.24-13l.38-.54-.53.39c-1.21.6-2.44,2.88-2.92-.85-.62-4.77-.64-9.59-1.4-14.37.35,5.81-1.41,11.41-1.11,17.28-1.59-.29-2-2.18-3.61-2a1.75,1.75,0,0,0-1-1.75,1.59,1.59,0,0,0-.16-.32c-.05-.05-.16,0-.25-.06l.44.35a1.73,1.73,0,0,0,.87,1.87c2.39,4.29,5.37,8.43,3.33,13.83-1.48-.22-2.1-1.61-3.19-2.36a4.56,4.56,0,0,0-.5-.48C351.85,290.78,350.92,288.06,348.07,287.83Z" transform="translate(-95.91 -53.66)"/><path class="cls-6" d="M339.89,302.57c-.58,2-2.29,3.13-3.53,4.62-.86,1-2,1.88-1.95,3.43.07,2.09-.59,4.82,1.24,5.94s2.71-1.75,4.19-2.58c.52-.29,1.06-.55,1.59-.82l.42.4c-.27.54-.4,1.28-.84,1.58-6.41,4.42-6.26,10.88-5.53,17.53q.13,11.64.25,23.27c0,3.5-1.4,4.4-4.4,2.4.1-.1.28-.25.26-.29a5.35,5.35,0,0,0-.43-.54q-.17-12.39-.35-24.78c1.07-7-.14-13.24-5.81-18.07l.49-.48,5.65,4c.42-4.41,1.6-8.38-2.32-11.62a14,14,0,0,1-2.1-2.87l.48-.48,4,2.58a15.62,15.62,0,0,0-1.91-12.08l.45-.48c3.4,1.54,2.34-1.57,2.39-2.64.21-4.54.1-9.1.1-13.65a1.54,1.54,0,0,1,.85.12c.34,5,.64,9.91,1.06,14.86.32,3.79,1.73.3,2.63.34.12.13.24.25.37.37-2.34,3.93-3.88,8-2.47,12.92,2.06-.31,2.76-2.92,4.82-3.35Z" transform="translate(-95.91 -53.66)"/><path class="cls-7" d="M360.68,301.26c.83,2-1.63,5.18,2.34,6,.66.14.23,1.07-.15,1.52-3.35,4-2,8.34-1.05,12.68.06,7.1.23,14.21.1,21.31,0,2,1.78,5.5-2.51,5.4s-2.38-3.61-2.42-5.58c-.16-7,.08-14,.17-20.93,0-2.85.08-5.69.08-8.54,0-2.61-.9-4.68-3.6-5.56-.24-.95-.48-1.91-.71-2.85,1.41.21,2.39,1.89,4.3,1.2l-.05-4.52,1-1Z" transform="translate(-95.91 -53.66)"/><path class="cls-5" d="M353.64,307.59c2.7.88,3.6,3,3.6,5.56,0,2.85-.05,5.69-.08,8.54l-5.34-1Q352.74,314.13,353.64,307.59Z" transform="translate(-95.91 -53.66)"/><path class="cls-5" d="M372.94,316.86c-2.1-3.89-7-5.61-8.8-11.33l10.58,9.4A3.07,3.07,0,0,1,372.94,316.86Z" transform="translate(-95.91 -53.66)"/><path class="cls-3" d="M327.27,269.31c.3.67,1,1.54.82,2-.51,1-1.55-.12-2.35.17Z" transform="translate(-95.91 -53.66)"/><path class="cls-8" d="M331.16,357.51a5.35,5.35,0,0,1,.43.54s-.16.19-.26.29c-.07-.18-.17-.35-.22-.53A.82.82,0,0,1,331.16,357.51Z" transform="translate(-95.91 -53.66)"/><path class="cls-5" d="M357.18,301.42l.05,4.52c-1.91.69-2.89-1-4.3-1.2-.45-2.95-.89-5.9-1.34-8.85A20.43,20.43,0,0,1,357.18,301.42Z" transform="translate(-95.91 -53.66)"/><path class="cls-4" d="M357.18,301.42a20.43,20.43,0,0,0-5.59-5.53,1.94,1.94,0,0,1-.95-1.81c-.35-1.26-.69-2.52-1-3.78,1.43.56,2.27,2.4,4.17,1.92a3.86,3.86,0,0,1,.5.49c-.76,3.62,3.59,4.62,3.94,7.67Z" transform="translate(-95.91 -53.66)"/><path class="cls-3" d="M349.6,290.3c.35,1.26.69,2.52,1,3.78l-6.21-5.6c1.59-1.34,2.49,0,3.56.16Z" transform="translate(-95.91 -53.66)"/><path class="cls-8" d="M349.6,290.3,348,288.64a3.18,3.18,0,0,0,.08-.81c2.85.23,3.78,2.95,5.7,4.39C351.87,292.7,351,290.86,349.6,290.3Z" transform="translate(-95.91 -53.66)"/><path class="cls-3" d="M333.05,277a1.54,1.54,0,0,0-.85-.12c0-.52-.87-1.31-.1-1.47C333.09,275.22,333,276.33,333.05,277Z" transform="translate(-95.91 -53.66)"/><path class="cls-6" d="M324.26,300.62l1,.81-.29.31-.9-.94Z" transform="translate(-95.91 -53.66)"/><path class="cls-6" d="M340.41,301.28l1-.86.23.21-.87,1Z" transform="translate(-95.91 -53.66)"/><path class="cls-6" d="M325.27,301.43l1,.85c-.14.15-.28.29-.41.44l-.87-1Z" transform="translate(-95.91 -53.66)"/><path class="cls-6" d="M339.46,302.16c.32-.29.64-.58,1-.88l.34.34-.86.95Z" transform="translate(-95.91 -53.66)"/><path class="cls-6" d="M326.26,302.28l.94.9-.48.47-.87-.93C326,302.57,326.12,302.43,326.26,302.28Z" transform="translate(-95.91 -53.66)"/><path class="cls-6" d="M323.23,312.79c-.32-.2-.84-.35-.25-.8,0,0,.36.32.55.49Z" transform="translate(-95.91 -53.66)"/><path class="cls-6" d="M342.39,312.29c.21-.34.4-.81.83-.22,0,0-.33.35-.51.54C342.61,312.5,342.5,312.4,342.39,312.29Z" transform="translate(-95.91 -53.66)"/><path class="cls-6" d="M323.53,312.48l1,.84-.4.41-.89-.94Z" transform="translate(-95.91 -53.66)"/><path class="cls-6" d="M342.71,312.61l-.86.95-.42-.4,1-.87C342.5,312.4,342.61,312.5,342.71,312.61Z" transform="translate(-95.91 -53.66)"/><path class="cls-6" d="M325,314.66l-.88-.93.4-.41,1,.86Z" transform="translate(-95.91 -53.66)"/><path class="cls-6" d="M327.62,291.64c-.17-.17-.52-.47-.5-.48.48-.59.54,0,.71.27Z" transform="translate(-95.91 -53.66)"/><path class="cls-6" d="M328.42,292.68l-.79-1,.2-.21,1,.86Z" transform="translate(-95.91 -53.66)"/><path class="cls-6" d="M336.74,292.22c.18-.18.49-.54.53-.52.56.38.15.63-.16.89C337,292.47,336.86,292.35,336.74,292.22Z" transform="translate(-95.91 -53.66)"/><path class="cls-6" d="M328.81,292.29l.9.9-.45.48-.84-1Z" transform="translate(-95.91 -53.66)"/><path class="cls-6" d="M324.08,300.8l-.38-.54.55.36Z" transform="translate(-95.91 -53.66)"/><path class="cls-6" d="M341.39,300.42l.61-.36-.39.57Z" transform="translate(-95.91 -53.66)"/><path class="cls-8" d="M358.21,300.38c-.35-3.05-4.7-4.05-3.94-7.67,1.09.74,1.71,2.13,3.19,2.35,2-5.4-.94-9.54-3.33-13.83l.11-.09c1.57-.22,2,1.67,3.61,2-.3-5.87,1.46-11.47,1.11-17.28.76,4.78.78,9.6,1.4,14.37.48,3.73,1.71,1.45,2.92.85l.15.15c-1.73,4.1-4.21,8.05-2.24,13,2.44-.36,3.13-3.79,5.81-4.07l.18.17c-.48,2.46-2.55,3.75-4.11,5.33a6.83,6.83,0,0,0-2.38,5.63Z" transform="translate(-95.91 -53.66)"/><path class="cls-8" d="M353.23,279.39a1.75,1.75,0,0,1,1,1.75l-.11.09a1.73,1.73,0,0,1-.87-1.87Z" transform="translate(-95.91 -53.66)"/><path class="cls-8" d="M353.26,279.36l-.44-.35c.09,0,.2,0,.25.06a1.59,1.59,0,0,1,.16.32Z" transform="translate(-95.91 -53.66)"/><path class="cls-8" d="M363.28,281l.53-.39-.38.54Z" transform="translate(-95.91 -53.66)"/><path class="cls-8" d="M367,290.13l.54-.36-.36.53Z" transform="translate(-95.91 -53.66)"/><path class="cls-9" d="M454.56,368.71l-2.4,5.75a8.23,8.23,0,0,1-2.72,3.46c-1,.75-2.09,1.34-3,1.06-1.22-.37-1.63-1.85-1.45-3.12l1.08-7.38a3.4,3.4,0,0,1,1.15-2.07l2.17-1.83a1.28,1.28,0,0,1,1.81.15Z" transform="translate(-95.91 -53.66)"/><path class="cls-10" d="M428.44,243.5a7.79,7.79,0,0,1-8,7.55c-4.25-.18-7.45-3.11-7.26-7.46s7.64-8,11.89-7.79S428.63,239.15,428.44,243.5Z" transform="translate(-95.91 -53.66)"/><path class="cls-9" d="M503.45,245.24s-5.19-.77-7-2.64-2.31-4.62-.85-6,4.43-1.1,6,.78S503.45,245.24,503.45,245.24Z" transform="translate(-95.91 -53.66)"/><path class="cls-9" d="M472.44,347.89a4.42,4.42,0,0,1-3.44-5.22l2.15-10.4a4.42,4.42,0,1,1,8.66,1.79l-2.15,10.4A4.41,4.41,0,0,1,472.44,347.89Z" transform="translate(-95.91 -53.66)"/><path class="cls-9" d="M480.75,370.51l0,0a1.88,1.88,0,0,0-.43-.51L472,360.09,475.29,344l-3.93-.81-3.72,18,9.1,10.78h0a26.36,26.36,0,0,1-16.43,12,1.79,1.79,0,0,0,.35,3.52,1.67,1.67,0,0,0,.49-.05,29.91,29.91,0,0,0,19.57-15.25A1.79,1.79,0,0,0,480.75,370.51Z" transform="translate(-95.91 -53.66)"/><circle class="cls-9" cx="489.77" cy="237.14" r="3.93" transform="translate(-149.93 163.54) rotate(-23.74)"/><circle class="cls-9" cx="388.66" cy="197.59" r="5.29"/><ellipse class="cls-9" cx="491.81" cy="237.66" rx="5.19" ry="5.99" transform="translate(137.35 665.16) rotate(-87.54)"/><rect class="cls-9" x="484.57" y="246.16" width="9.28" height="10.58" transform="translate(-84.67 -74.42) rotate(2.46)"/><circle class="cls-9" cx="484.18" cy="244.77" r="3.93" transform="translate(33.88 601.9) rotate(-76.03)"/><path class="cls-9" d="M503.44,245.21c-.33-2.49-.5-4.14-1.58-5.79a9.31,9.31,0,0,0-7.42-4.28,9.55,9.55,0,0,0-9.83,9.26c-.23,5.34-.18,12.14,5,12.36,1.06.05,3.9.17,6.37.15a7.85,7.85,0,0,1,3.26.75,3.85,3.85,0,0,0,1.44.34,3.93,3.93,0,0,0,4.1-3.76C504.85,253,503.56,246.19,503.44,245.21Z" transform="translate(-95.91 -53.66)"/><path class="cls-10" d="M410.82,242.44a1.21,1.21,0,0,1-1.16-1.26l.22-5a1.21,1.21,0,0,1,2.41.11l-.21,5A1.21,1.21,0,0,1,410.82,242.44Z" transform="translate(-95.91 -53.66)"/><path class="cls-11" d="M389.54,277.48l5.68,5.25,18.46-15.89a4.56,4.56,0,0,0,0-6.54c-1.79-1.95-9.81,0-11.53,1.67Z" transform="translate(-95.91 -53.66)"/><path class="cls-11" d="M450.25,366.91a1.87,1.87,0,0,0-.09-2.54l-3-3-2.62,3.4,3.14,2.38A1.87,1.87,0,0,0,450.25,366.91Z" transform="translate(-95.91 -53.66)"/><path class="cls-9" d="M448.6,362.56s-11.47-16-12.91-17.39-2.74-3.24-2.73-5.36c0-11.13-.14-31.32-1.86-38.83-1.61-7.06-5.63-2.53-12.76-1.3l-3.59-1.7,2.12,10.43,6,35a6.61,6.61,0,0,0,.15.89l0,.26h0a10.28,10.28,0,0,0,3.35,5.39l19.12,16.09s1,.52,2.23-.9C449.1,363.57,448.6,362.56,448.6,362.56Z" transform="translate(-95.91 -53.66)"/><polygon class="cls-11" points="315.08 329.1 319.22 328.37 319.72 322.43 314.58 322.71 315.08 329.1"/><path class="cls-9" d="M407,298.72c7.24.08,15.69-4.41,15,2.8-1,10.73-4.5,29.87-5.8,39.89a35.15,35.15,0,0,0-.18,8.14,98.65,98.65,0,0,1,.29,17.61l-.94,12.28c-.08,1.11-4.85,1-5,.06l-4.53-33.89c-.13-1-1.67-33.14-1.55-37.67C404.34,306.89,407,298.72,407,298.72Z" transform="translate(-95.91 -53.66)"/><path class="cls-9" d="M402.69,383.49l7.09-2.39a1.68,1.68,0,0,1,1.56.23,2.91,2.91,0,0,0,1.51.56,2.78,2.78,0,0,0,2.34-.9h.05l-.29,6.64L401,387l.06-1.41A2.34,2.34,0,0,1,402.69,383.49Z" transform="translate(-95.91 -53.66)"/><polygon class="cls-11" points="396.76 333.37 400.89 332.61 401.36 326.67 396.21 326.98 396.76 333.37"/><path class="cls-12" d="M488.12,303c7.24,0,14.68,1.38,14,8.6-1,10.73-3.32,24-4.56,34a34.55,34.55,0,0,0-.11,8.14,98.68,98.68,0,0,1,.41,17.61L497,383.68c-.08,1.12-4.84,1.07-5,.09l-4.76-33.86c-.14-1-1.9-33.12-1.81-37.66C485.5,311.21,488.12,303,488.12,303Z" transform="translate(-95.91 -53.66)"/><path class="cls-12" d="M476.13,299.13c7.14,1.15,14.29,3.64,12.53,10.66-2.13,8.53-5.06,18.34-8,26.95-1.18,3.49-12,1.09-11.62-2.37,1.1-9.8,2.52-23.62,3-26.52C472.27,306.82,476.13,299.13,476.13,299.13Z" transform="translate(-95.91 -53.66)"/><path class="cls-9" d="M484.38,387.82l7.06-2.44a1.7,1.7,0,0,1,1.56.22,3,3,0,0,0,1.52.55,2.76,2.76,0,0,0,2.33-.92h0l-.24,6.65-13.93-.52.06-1.41A2.32,2.32,0,0,1,484.38,387.82Z" transform="translate(-95.91 -53.66)"/><path class="cls-13" d="M431.37,259.64l-11.59-4.73L408,258.61c-4.9,1.5-8.26,4.78-8.45,9.22L404,273l.34,5.63,15.28-16.34,12.65,18.29,6.48-10.78C438.38,263.43,436.1,261.52,431.37,259.64Z" transform="translate(-95.91 -53.66)"/><path class="cls-9" d="M386.9,278.52,385,259.22l4.78-1,5.45,24.51-1.72.39A5.43,5.43,0,0,1,386.9,278.52Z" transform="translate(-95.91 -53.66)"/><path class="cls-9" d="M388.88,247.44l-2.63,1.12a1.52,1.52,0,0,0-.85.94l-1,3.19.59,6.59,5,.31.78-6.42.27-4.23A1.52,1.52,0,0,0,388.88,247.44Z" transform="translate(-95.91 -53.66)"/><path class="cls-13" d="M396.2,269.3l0,.11a13.13,13.13,0,0,0,6.62,6.75l10.82-9.32a4.56,4.56,0,0,0,0-6.54c-1.79-1.95-9.81,0-11.53,1.67Z" transform="translate(-95.91 -53.66)"/><path class="cls-13" d="M432.48,309l-.89,0a169.16,169.16,0,0,1-27.28-1.1l0-43,15.25-5.48,14.78,5.77Z" transform="translate(-95.91 -53.66)"/><path class="cls-14" d="M504.47,262.58l-11.12-5.76-12,2.61c-5,1.05-8.67,4-9.26,8.41l3.92,5.5L475.8,279l13.46,4,14.18.51,7.44-10.15C511.11,267,509,264.89,504.47,262.58Z" transform="translate(-95.91 -53.66)"/><path class="cls-15" d="M495.54,319.92l-19.24-2.23a5.63,5.63,0,0,1-4.94-6.28l5.69-46,15.69-4.07,14.19,7.1L501.78,315A5.62,5.62,0,0,1,495.54,319.92Z" transform="translate(-95.91 -53.66)"/><path class="cls-11" d="M493.4,256.79l-12,2.62q-.51.1-1,.24c1.39,3,5.79,5.62,11.25,6.28s10.49-.87,12.51-3.57Z" transform="translate(-95.91 -53.66)"/><path class="cls-9" d="M428.7,239a8.08,8.08,0,0,1-1.91,2.86c-.16.16-.59-.21-.76-.06-2.44,2-5.72,3.16-9,1.86A8.65,8.65,0,1,1,428.7,239Z" transform="translate(-95.91 -53.66)"/><path class="cls-11" d="M415.38,257.77l.36-9.31,8.14.26-.36,9.3C423.49,259.2,415.35,258.78,415.38,257.77Z" transform="translate(-95.91 -53.66)"/><path class="cls-16" d="M415.52,254.6l.35-9.31,8.14.26-.35,9.3C423.62,256,415.49,255.61,415.52,254.6Z" transform="translate(-95.91 -53.66)"/><path class="cls-11" d="M422,251.06a23.57,23.57,0,0,0-2.26,2,4.51,4.51,0,0,1-4.71-.1s-1.82-1.09-2.4-1.5a5.21,5.21,0,0,1-2.16-4.78l.21-10.34h4.37l4.09.12a6.21,6.21,0,0,1,6.1,5.89v.35l-.38,3.74A5.45,5.45,0,0,1,422,251.06Z" transform="translate(-95.91 -53.66)"/><path class="cls-13" d="M423.5,312.53l-7,.51a5.45,5.45,0,0,1-5.92-5c-.27-3,4.9-5.81,7.9-6.08l4.08-.36c3-.26,5.34,1.09,5.61,4.1l0,1.16C428.27,311.06,426.5,312.26,423.5,312.53Z" transform="translate(-95.91 -53.66)"/><path class="cls-10" d="M422.58,246.91c-.63.37-3.94,2-3.94,2a3.71,3.71,0,0,1-4.71-.42s-1.43-1.11-1.93-1.64a5.87,5.87,0,0,1-1.45-2.86l-.06,2.7a5.21,5.21,0,0,0,2.16,4.78c.58.41,2.4,1.5,2.4,1.5a4.51,4.51,0,0,0,4.71.1s1.86-1,2.46-1.4a5.7,5.7,0,0,0,2.95-4.68l.06-2.62A6.26,6.26,0,0,1,422.58,246.91Z" transform="translate(-95.91 -53.66)"/><path class="cls-11" d="M424.66,246.17l-1.81-.08.06-4,1.66-.45a1.36,1.36,0,0,1,1.72,1.33l-.25,1.84A1.37,1.37,0,0,1,424.66,246.17Z" transform="translate(-95.91 -53.66)"/><path class="cls-11" d="M488.93,259.65l1.05-8.26,8.1.88L497,260.53C496.89,261.71,488.82,260.65,488.93,259.65Z" transform="translate(-95.91 -53.66)"/><path class="cls-16" d="M490,251.19l-.83,6.52.12.09a5.41,5.41,0,0,0,5.17.19s1.28-.7,2.08-1.25a9,9,0,0,0,1.07-.86l.49-3.8Z" transform="translate(-95.91 -53.66)"/><path class="cls-11" d="M496.58,253.89c-.81.55-3.68,2-3.68,2a4.48,4.48,0,0,1-4.66-.62s-1.05-1.05-1.47-1.57c-1.32-1.66-1.63-2.44-1.44-4.4l1-10.3,4.13.92,4.06.43c3.24.34,6,2.52,5.86,5.77,0,.12,0,.23,0,.35l-.67,3.7C499.51,252.1,498.23,252.76,496.58,253.89Z" transform="translate(-95.91 -53.66)"/><rect class="cls-9" x="421.37" y="296.76" width="26.89" height="19.77" rx="5.53" transform="translate(-41.22 -119.3) rotate(9.21)"/><path class="cls-11" d="M444.52,293.31l-6.85,16.58L433,308.83,438.72,286l1.73.36A5.44,5.44,0,0,1,444.52,293.31Z" transform="translate(-95.91 -53.66)"/><path class="cls-11" d="M437.35,292.42l7-2.86L438,265.63a4.3,4.3,0,0,0-5.32-3.42c-2.55.72-.66,13.67.05,16Z" transform="translate(-95.91 -53.66)"/><path class="cls-13" d="M432.72,278.17h1.13a9,9,0,0,0,6.67-3l-2.45-9.52a4.61,4.61,0,0,0-5.57-3.53l-.19,0a4.31,4.31,0,0,0-3,5.52Z" transform="translate(-95.91 -53.66)"/><path class="cls-11" d="M433.4,307.5,430.06,313a.54.54,0,0,0-.07.13l-1.09,2.29a1.39,1.39,0,0,0,1,2l2.85.55a1.4,1.4,0,0,0,1.18-.32l1.39-1.23a1.39,1.39,0,0,0,.39-.59l2-5.94Z" transform="translate(-95.91 -53.66)"/><path class="cls-10" d="M422.93,243.71a1.22,1.22,0,0,1-1.16-1.26l.09-2a1.21,1.21,0,1,1,2.42.1l-.09,2A1.21,1.21,0,0,1,422.93,243.71Z" transform="translate(-95.91 -53.66)"/><path class="cls-17" d="M460.76,317.17l2.52,7.11s14.47-30.25,18.64-40.62c3.38-8.41,6.59-24,4.23-25.25a49.44,49.44,0,0,0-7.59,1.84,14.55,14.55,0,0,0-3.24,1.85c-.47.36,1.65,3.61,1.65,3.61l-15.51,37.64C459.31,308.33,459.54,312.05,460.76,317.17Z" transform="translate(-95.91 -53.66)"/><path class="cls-9" d="M502.41,302.91a79.43,79.43,0,0,1-19.58-41.52l-.33-2.26,2.33-.49.36,2.39a77,77,0,0,0,19,40.29Z" transform="translate(-95.91 -53.66)"/><path class="cls-17" d="M511,323.92l-3.6,5.43s-7.89-36-10.55-48c-1.6-7.21-1.52-19.88,2.78-21.28,0,0,5.24,2.57,6.86,3.63,2.32,1.53,2.77,2.42,2.77,2.42l5.42,42.68A19,19,0,0,1,511,323.92Z" transform="translate(-95.91 -53.66)"/><path class="cls-9" d="M486.76,235.85l-.93,1.46-.05,1.29a2.42,2.42,0,0,1-2.22,2.29l-1.09,1.71,3.66,2.33,4.3-6.75Z" transform="translate(-95.91 -53.66)"/><path class="cls-9" d="M495.93,236.66c1,1.57-.41,4.32-3.2,6.14s-5.89,2-6.92.46.41-4.32,3.21-6.14S494.91,235.09,495.93,236.66Z" transform="translate(-95.91 -53.66)"/><path class="cls-9" d="M485.74,246.15a1.92,1.92,0,0,1,2-1.86l.65,0-4.64-1.24-.2,4.74,1.78,1.14S485.67,246.65,485.74,246.15Z" transform="translate(-95.91 -53.66)"/><circle class="cls-9" cx="403.85" cy="200.62" r="3.26"/><polygon class="cls-9" points="404.12 200.63 401.17 198.75 403.48 194.23 407.63 195.11 404.12 200.63"/><path class="cls-11" d="M519.79,296.72l-9.2,3.66-2.87-3.85,12.54-9.2,1,1.49A5.42,5.42,0,0,1,519.79,296.72Z" transform="translate(-95.91 -53.66)"/><path class="cls-17" d="M514.19,291.78l6.07-4.45L509.85,267.1a4.28,4.28,0,0,0-5.93-2.15c-2.34,1.26-2.35,5.61,3.56,15.55Z" transform="translate(-95.91 -53.66)"/><path class="cls-11" d="M460.78,292.21l8.78,4.59,3.25-3.54L461,282.9l-.85,1.3A5.43,5.43,0,0,0,460.78,292.21Z" transform="translate(-95.91 -53.66)"/><path class="cls-17" d="M466.86,287.87l-6.09-4.58,12.94-19.52c1.3-2,3.56-3.26,5.79-1.74,2.93,2.29,2.41,5.07-4.8,15.31Z" transform="translate(-95.91 -53.66)"/><path class="cls-18" d="M391.56,266.29l-5,8.39.2,2,5.22-8.69Zm-1.06-4.77L386,269.07l.2,2,4.72-7.85Z" transform="translate(-95.91 -53.66)"/><rect class="cls-19" x="506.71" y="294.21" width="2.83" height="9.38" transform="translate(-176.99 264.46) rotate(-32.33)"/><rect class="cls-19" x="469.61" y="290.66" width="2.83" height="9.38" transform="translate(201.52 -286.48) rotate(39.72)"/><path class="cls-20" d="M412.64,243.06a.54.54,0,0,0,.54-.54V242a.54.54,0,1,0-1.07,0v.48A.55.55,0,0,0,412.64,243.06Z" transform="translate(-95.91 -53.66)"/><path class="cls-10" d="M413.75,240a.31.31,0,0,0,.28-.24.47.47,0,0,0-.33-.43,5.47,5.47,0,0,0-1-.12,4.18,4.18,0,0,0-.83,0c-.16,0-.63.29-.6.45a.3.3,0,0,0,.35.24,4.61,4.61,0,0,1,1.05-.08,6.85,6.85,0,0,1,1,.13Z" transform="translate(-95.91 -53.66)"/><path class="cls-20" d="M419.25,243.31a.53.53,0,0,1-.52-.55v-.49a.54.54,0,0,1,.55-.52.55.55,0,0,1,.53.55l0,.49A.52.52,0,0,1,419.25,243.31Z" transform="translate(-95.91 -53.66)"/><path class="cls-10" d="M418.21,240.28A.32.32,0,0,1,418,240c0-.17.23-.38.39-.39a6.68,6.68,0,0,1,1,0,3.82,3.82,0,0,1,1.06.2c.16,0,.58.38.53.53a.29.29,0,0,1-.37.19,6.32,6.32,0,0,0-1.28-.26,5.68,5.68,0,0,0-1,0Z" transform="translate(-95.91 -53.66)"/><path class="cls-1" d="M416.4,248.8l-.95,0a1.71,1.71,0,0,1-1.83-1.75l4.78.23A1.71,1.71,0,0,1,416.4,248.8Z" transform="translate(-95.91 -53.66)"/><path class="cls-21" d="M415.34,245.87h-.06l-.79-.19a1.42,1.42,0,0,1-.89-.68,1.39,1.39,0,0,1-.14-1.11l.9-3.18c.05-.16.28-.42.43-.37s.19.37.15.53L414,244a.84.84,0,0,0,.61,1.05l.78.2c.16,0,.39.29.35.45S415.48,245.88,415.34,245.87Z" transform="translate(-95.91 -53.66)"/><path class="cls-9" d="M427.22,242.51l-16.76-5.76a2.73,2.73,0,1,1,1.78-5.16L429,237.35a2.73,2.73,0,0,1-1.77,5.16Z" transform="translate(-95.91 -53.66)"/><path class="cls-20" d="M487.54,247.11a.54.54,0,0,0,.59-.48l.05-.49a.54.54,0,0,0-.48-.59.54.54,0,0,0-.59.48l-.05.49A.54.54,0,0,0,487.54,247.11Z" transform="translate(-95.91 -53.66)"/><path class="cls-20" d="M493.91,247.81a.54.54,0,0,1-.46-.6l.06-.48a.54.54,0,0,1,.6-.47.55.55,0,0,1,.47.6l-.07.49A.53.53,0,0,1,493.91,247.81Z" transform="translate(-95.91 -53.66)"/><path class="cls-9" d="M493.76,245.22a.31.31,0,0,1-.22-.3c0-.16.26-.34.43-.34a6.85,6.85,0,0,1,1,.12c.87.16,1.21.73,1.14.88s-.17.15-.32.09a3.57,3.57,0,0,0-.95-.33,6.65,6.65,0,0,0-1-.11Z" transform="translate(-95.91 -53.66)"/><path class="cls-22" d="M491.44,253.52l-1.54-.18a1.93,1.93,0,0,1-1.68-2.13l5.34.63A1.91,1.91,0,0,1,491.44,253.52Z" transform="translate(-95.91 -53.66)"/><path class="cls-1" d="M492.12,252.44l-2.63-.31a.78.78,0,0,1-.68-.85l4.16.49A.76.76,0,0,1,492.12,252.44Z" transform="translate(-95.91 -53.66)"/><path class="cls-21" d="M490,249.73c.12,0,.32.09.39,0a.48.48,0,0,0-.19-.53.88.88,0,0,1-.3-1.25l.83-1.26a.46.46,0,0,0,0-.53c-.14-.1-.36.07-.45.2l-.83,1.26a1.48,1.48,0,0,0-.21,1.16,1.51,1.51,0,0,0,.71.94Z" transform="translate(-95.91 -53.66)"/><path class="cls-9" d="M500,239.75l.17-.47-6-2.12L493,240.39l3.65,1.28a2.22,2.22,0,0,1,1.48,2.19l-.11,2.53a1.62,1.62,0,0,0,1.33,1.69,1.58,1.58,0,0,0,1.8-1.48l.22-5.24A1.55,1.55,0,0,0,500,239.75Z" transform="translate(-95.91 -53.66)"/><path class="cls-11" d="M498.23,250.62l-1.05,0-.27-4.4.85-.09c.93-.08,1.8.33,1.85,1.23l-.11,1.85A1.37,1.37,0,0,1,498.23,250.62Z" transform="translate(-95.91 -53.66)"/><path class="cls-9" d="M237.46,293.13l-9.24.14a1.61,1.61,0,1,1-.05-3.22l9.24-.14a1.61,1.61,0,1,1,.05,3.22Z" transform="translate(-95.91 -53.66)"/><path class="cls-23" d="M219.32,318.53l-14.57,2a10.73,10.73,0,0,1-10.5-4.84l24.23-3.29Z" transform="translate(-95.91 -53.66)"/><path class="cls-24" d="M247.13,327.12a.61.61,0,0,1-.59-.46L237,291a.61.61,0,0,1,1.18-.31l9.49,35.67a.6.6,0,0,1-.43.74A.8.8,0,0,1,247.13,327.12Z" transform="translate(-95.91 -53.66)"/><ellipse class="cls-23" cx="248.34" cy="307.82" rx="7.35" ry="6.08" transform="translate(-100.67 -49.76) rotate(-0.89)"/><path class="cls-23" d="M253.27,310.13l-12.05-3.74L237,315.61l-14.38-3.46a7.09,7.09,0,0,0-8.64,5.1l-2.54,9.87L239,336.78l-.79.12.79-.12,4.61-.72a11.32,11.32,0,0,0,9.46-9.6Z" transform="translate(-95.91 -53.66)"/><path class="cls-23" d="M258,316.82a3.42,3.42,0,0,1-3.66-1.81l-3.72-7.27,4.52-2.3,4.31,8.44A2,2,0,0,1,258,316.82Z" transform="translate(-95.91 -53.66)"/><path class="cls-25" d="M239.19,316.73a3.06,3.06,0,0,0,3.43-1.55l1.84-3.91a3.94,3.94,0,0,0-1.89-5.25l-1-.48-4,8.52A2,2,0,0,0,239.19,316.73Z" transform="translate(-95.91 -53.66)"/><path class="cls-23" d="M240.18,354.1l-2.2,2.66-3.53-18.61a3.16,3.16,0,0,1,3.06-3.77l3.4-.05Z" transform="translate(-95.91 -53.66)"/><path class="cls-23" d="M237.94,352.62h2.71a2.29,2.29,0,0,1,2.29,2.29v1.81a0,0,0,0,1,0,0h-5a0,0,0,0,1,0,0v-4.1A0,0,0,0,1,237.94,352.62Z" transform="translate(-101.4 -49.87) rotate(-0.89)"/><path class="cls-23" d="M249.32,353.38l-2.26,2.5-3.52-18.61a3.16,3.16,0,0,1,3.06-3.77l3.37-1.9Z" transform="translate(-95.91 -53.66)"/><path class="cls-23" d="M247,351.74h2.71A2.29,2.29,0,0,1,252,354v1.81a0,0,0,0,1,0,0h-5a0,0,0,0,1,0,0v-4.1A0,0,0,0,1,247,351.74Z" transform="translate(-101.39 -49.73) rotate(-0.89)"/><path class="cls-23" d="M226.52,348l-1.72-10.7h-.05l6.25-7.68-10.12-3.91-.4,11.17L224,352.14l5-.08,0-1.21A2.89,2.89,0,0,0,226.52,348Z" transform="translate(-95.91 -53.66)"/><path class="cls-23" d="M219.05,348.64l-1.72-10.7h-.05l6.25-7.67-10.12-3.91-.4,11.17,3.49,15.21,5-.08,0-1.21A2.88,2.88,0,0,0,219.05,348.64Z" transform="translate(-95.91 -53.66)"/><path class="cls-9" d="M204,235.46a7,7,0,0,1-9.75-1.23l-.4-.51a7,7,0,0,1,11-8.52l.39.51A7,7,0,0,1,204,235.46Z" transform="translate(-95.91 -53.66)"/><polygon class="cls-11" points="119.75 299.09 116.35 298.64 115.72 293.82 119.92 293.85 119.75 299.09"/><path class="cls-11" d="M227.39,271.77l7.23,14.1-3.33,2.2L222.7,276,221,270.24A4.44,4.44,0,0,1,227.39,271.77Z" transform="translate(-95.91 -53.66)"/><path class="cls-11" d="M237.6,288.54l-3.15-3L231.27,288l2.75,2.91-.23,2.17a.89.89,0,0,0,.85.74l2,.05a.91.91,0,0,0,.89-.69l.66-2.81A1.89,1.89,0,0,0,237.6,288.54Z" transform="translate(-95.91 -53.66)"/><path class="cls-11" d="M179.59,275,179,290.85l3.94.58,3.21-20.27-1.43-.23A4.44,4.44,0,0,0,179.59,275Z" transform="translate(-95.91 -53.66)"/><path class="cls-9" d="M174.05,357.07H174a.47.47,0,0,1-.42-.54l7.79-61.46a.48.48,0,1,1,1,.13l-7.79,61.45A.49.49,0,0,1,174.05,357.07Z" transform="translate(-95.91 -53.66)"/><path class="cls-11" d="M183.21,295.3l-.18-5-4,.56-.57,4a3.61,3.61,0,0,0,.65,2.62l1.59,2.25a1.07,1.07,0,0,0,1.29.52l1.54-.53a1.06,1.06,0,0,0,.72-1.09Z" transform="translate(-95.91 -53.66)"/><path class="cls-9" d="M222.21,354l-5.64-2.33a1.37,1.37,0,0,0-1.29.1,2.37,2.37,0,0,1-1.26.38,2.28,2.28,0,0,1-1.86-.87h0l-.12,5.43,11.38.26,0-1.15A1.91,1.91,0,0,0,222.21,354Z" transform="translate(-95.91 -53.66)"/><polygon class="cls-11" points="99.5 299.43 96.17 298.61 96.08 293.74 100.25 294.25 99.5 299.43"/><path class="cls-9" d="M214.38,284.59c-4.75-.07-7.6-1.09-8.75,1.55l-2.42-1.36c-5.91-.33-12.55-4.44-12.37,1.47.26,8.81,1.3,25.17,2.93,32.68.83,3.84-.12,5.82-.12,5.82a17.12,17.12,0,0,0-1.82,6.81l.19,18.58c0,.92,3.9,1.11,4.06.32l5.53-27.39a20.75,20.75,0,0,0,.23-2.6c.25-3.87.64-13.34.79-17.05a1.62,1.62,0,0,1,3.22-.12,138.43,138.43,0,0,0,2.71,16.62,13.79,13.79,0,0,1,.18,5.06,17,17,0,0,0-.52,6.81L212,350.08c.18.92,3.87.71,3.88-.36,0,0,2.2-39.64-.83-67.74C214.94,281.32,214.38,284.59,214.38,284.59Z" transform="translate(-95.91 -53.66)"/><path class="cls-26" d="M185.66,276l-5.81-2.37,7.83-20.47a3.88,3.88,0,1,1,7.17,3Z" transform="translate(-95.91 -53.66)"/><path class="cls-26" d="M222.7,276l5-4.34-10.86-19a3.89,3.89,0,1,0-6.64,4.05Z" transform="translate(-95.91 -53.66)"/><path class="cls-26" d="M210.52,287.37l-13.66.53c-3.55.14-6.59.16-7-3.37l0-18.45-3.14-9a7.8,7.8,0,0,1,7.66-7.9l15.87-.25a7.79,7.79,0,0,1,7.9,7.67l-1.9,8.78,0,18C216,287,214.11,287.24,210.52,287.37Z" transform="translate(-95.91 -53.66)"/><ellipse class="cls-9" cx="202.27" cy="233.66" rx="10.49" ry="9.08" transform="translate(-200.83 213.83) rotate(-55.4)"/><path class="cls-10" d="M201.1,240c1.21,1.6,2.15,2.52,1.19,3.25a3.49,3.49,0,0,1-4.5-.77c-1.21-1.6-1.58-3.34-.62-4.07S199.89,238.38,201.1,240Z" transform="translate(-95.91 -53.66)"/><path class="cls-11" d="M206.41,248.83l0-5.9-7,0,0,5.9C199.42,250.65,206.41,250.62,206.41,248.83Z" transform="translate(-95.91 -53.66)"/><path class="cls-16" d="M199.39,245.33a9.87,9.87,0,0,0,5.36,1.83,3.44,3.44,0,0,0,1.64-.6v-4l-7,0Z" transform="translate(-95.91 -53.66)"/><path class="cls-11" d="M197,238.91c.18,4.28,5.24,7,7.95,6.9,2-.09,5.23-3.17,5.05-7.46s-.09-7.69-3.68-7.68C196.24,230.68,196.81,234.63,197,238.91Z" transform="translate(-95.91 -53.66)"/><path class="cls-27" d="M201.76,237.8a.43.43,0,0,1-.44-.43V237a.44.44,0,0,1,.88,0v.4A.44.44,0,0,1,201.76,237.8Z" transform="translate(-95.91 -53.66)"/><path class="cls-27" d="M206.86,237.49a.43.43,0,0,1-.44-.43v-.4a.44.44,0,0,1,.43-.44.44.44,0,0,1,.45.43v.4A.43.43,0,0,1,206.86,237.49Z" transform="translate(-95.91 -53.66)"/><path class="cls-9" d="M193.5,249.27l2.33,38.66,2.43,0-2.33-38.7-1.63,0A7,7,0,0,0,193.5,249.27Z" transform="translate(-95.91 -53.66)"/><path class="cls-9" d="M209.46,249l2.3,38.33a3.84,3.84,0,0,0,1.35.22,3,3,0,0,0,1.07-.53l-2.28-37.87a7.85,7.85,0,0,0-1.7-.16Z" transform="translate(-95.91 -53.66)"/><path class="cls-9" d="M202.14,354.14l-5.65-2.34a1.38,1.38,0,0,0-1.28.1,2.43,2.43,0,0,1-1.26.38,2.26,2.26,0,0,1-1.86-.86H192l-.12,5.43,11.38.25,0-1.15A1.9,1.9,0,0,0,202.14,354.14Z" transform="translate(-95.91 -53.66)"/><circle class="cls-9" cx="106.14" cy="183.28" r="2"/><circle class="cls-9" cx="207.34" cy="236.85" r="2" transform="translate(-172.9 48.13) rotate(-23.39)"/><path class="cls-11" d="M197.48,240.86l1.62-.36-.71-3.18-1.4-.08a1.11,1.11,0,0,0-1.15,1.35l.32,1.43A1.1,1.1,0,0,0,197.48,240.86Z" transform="translate(-95.91 -53.66)"/><path class="cls-10" d="M197.87,238.14a.94.94,0,0,1-1-.92l-.07-4.17,1.85-1,.08,5.11A.93.93,0,0,1,197.87,238.14Z" transform="translate(-95.91 -53.66)"/><path class="cls-28" d="M229.11,292.06l10.43-2.35Z" transform="translate(-95.91 -53.66)"/><ellipse class="cls-10" cx="204.4" cy="231.02" rx="3" ry="5.53" transform="translate(-154.4 338.72) rotate(-80.04)"/><path class="cls-10" d="M198.72,233.42c0,.75-1.83,1.74-1.85,1l0-1.91a2.54,2.54,0,0,1,2.49-2.57H200c.75,0-.46,1.1-.45,1.85A2,2,0,0,0,198.72,233.42Z" transform="translate(-95.91 -53.66)"/><path class="cls-29" d="M203,250.26l-1.42,1.48a1.55,1.55,0,0,1-2.2,0L197,249.52l2.44-2.52Z" transform="translate(-95.91 -53.66)"/><path class="cls-29" d="M202.86,250.26l1.47,1.44a1.56,1.56,0,0,0,2.2,0l2.26-2.34-2.39-2.44Z" transform="translate(-95.91 -53.66)"/><path class="cls-29" d="M184.25,276.28l-3.7-1.91a1.83,1.83,0,1,1,1.67-3.25l3.71,1.91a1.83,1.83,0,0,1-1.68,3.25Z" transform="translate(-95.91 -53.66)"/><path class="cls-29" d="M227.18,272.83l-3.42,2.62a1.89,1.89,0,0,1-2.29-3l3.42-2.61a1.88,1.88,0,0,1,2.29,3Z" transform="translate(-95.91 -53.66)"/><path class="cls-24" d="M246.4,331.75c-8,.12-14.57-5.88-14.69-13.38a12.59,12.59,0,0,1,.51-3.76.73.73,0,0,1,1.4.4,11.75,11.75,0,0,0-.45,3.34c.11,6.69,6,12,13.21,11.94a13.66,13.66,0,0,0,6.07-1.51.73.73,0,1,1,.66,1.3A15.17,15.17,0,0,1,246.4,331.75Z" transform="translate(-95.91 -53.66)"/><path class="cls-24" d="M233.69,335.63a.7.7,0,0,1-.49-.17,15.35,15.35,0,0,1-4-5.61,14.4,14.4,0,0,1,3.21-16.24.73.73,0,1,1,1,1.07,12.94,12.94,0,0,0-2.86,14.6,13.79,13.79,0,0,0,3.67,5.07.73.73,0,0,1-.47,1.28Z" transform="translate(-95.91 -53.66)"/><path class="cls-24" d="M237.82,328.85a.63.63,0,0,1-.6-.45l-9.79-36.79a.61.61,0,0,1,1.18-.31l9.79,36.79a.61.61,0,0,1-.43.74Z" transform="translate(-95.91 -53.66)"/><path class="cls-22" d="M205.12,243.3l-1.26,0c-.87,0-1.58-.44-1.59-1.3l4.39-.07C206.67,242.81,206,243.28,205.12,243.3Z" transform="translate(-95.91 -53.66)"/><path class="cls-1" d="M205.9,242.59l-2.89,0a.62.62,0,0,1-.64-.62l4.15-.06A.64.64,0,0,1,205.9,242.59Z" transform="translate(-95.91 -53.66)"/><path class="cls-20" d="M246.83,307.84a.44.44,0,0,1-.45-.43V307a.44.44,0,0,1,.44-.44.43.43,0,0,1,.44.43v.4A.44.44,0,0,1,246.83,307.84Z" transform="translate(-95.91 -53.66)"/><polygon class="cls-23" points="151.48 262.11 151.37 254.94 160.07 254.8 151.48 262.11"/><path class="cls-20" d="M252.45,307.61a.46.46,0,0,1-.45-.44v-.4a.43.43,0,0,1,.43-.44.44.44,0,0,1,.45.43v.4A.44.44,0,0,1,252.45,307.61Z" transform="translate(-95.91 -53.66)"/><path class="cls-25" d="M249,314.55c-1.58-1.31-1.6-3.36-.5-5.22l1.22-2.57,3.3,2.72a3.3,3.3,0,0,1,.45,4.64A3.18,3.18,0,0,1,249,314.55Z" transform="translate(-95.91 -53.66)"/><path class="cls-20" d="M252.74,309.89c0,.51-1.32,1.14-1.32,1.14s-1.34-.58-1.35-1.09.59-.74,1.33-.75S252.73,309.39,252.74,309.89Z" transform="translate(-95.91 -53.66)"/><path class="cls-21" d="M204.56,240.92a1,1,0,0,1-.33,0c-.13,0-.35-.19-.31-.31s.33-.2.46-.15a.81.81,0,0,0,.35,0,.74.74,0,0,0,.44-.35.72.72,0,0,0,.07-.57l-.43-1.55c0-.13.06-.41.19-.45s.24.19.28.31l.43,1.56a1.21,1.21,0,0,1-.11.93,1.24,1.24,0,0,1-.74.59A2.32,2.32,0,0,1,204.56,240.92Z" transform="translate(-95.91 -53.66)"/><path class="cls-1" d="M137.55,336.91c1.12.16,2.26.26,3.37.5,11.87,2.58,19.49-2.88,20.76-15a5.47,5.47,0,0,1,1.85-3.81c11.94-11.35,11.12-24.72-2.18-34.46-1.84-1.35-1.86-1.95-.93-3.92,5.4-11.34,1.36-20.81-10.43-24.5-2-.63-3.05-1.21-3.62-3.44-2-8.06-8.07-12.54-15.07-11.6-7.58,1-12.22,6.47-12.37,15.1,0,2.37-.58,3.1-2.89,3.73-11.27,3.08-15.87,12.79-11.08,23.37,1,2.28,1.25,3.18-1.09,4.84-10,7.07-10.59,18.21-1.77,26.59,1.05,1,2.35,1.44,1.86,3.57-1.78,7.72.86,13.92,7.62,18s13.41,2.81,19.49-2c-.13,6.05-.35,12.09-.36,18.14,0,2.49-1.5,5.71,3.58,5.71s4.05-3.23,4-6.05C138.12,346.73,137.8,341.82,137.55,336.91Z" transform="translate(-95.91 -53.66)"/><path class="cls-5" d="M131.07,333.84c-6.08,4.78-12.67,6.06-19.49,2s-9.4-10.24-7.62-18c.49-2.13-.81-2.58-1.86-3.57-8.82-8.38-8.2-19.52,1.77-26.59,2.34-1.66,2.13-2.56,1.09-4.84-4.79-10.58-.19-20.29,11.08-23.37,2.31-.63,2.85-1.36,2.89-3.73.15-8.63,4.79-14.08,12.37-15.1,7-.94,13,3.54,15.07,11.6.57,2.23,1.61,2.81,3.62,3.44,11.79,3.69,15.83,13.16,10.43,24.5-.93,2-.91,2.57.93,3.92,13.3,9.74,14.12,23.11,2.18,34.46a5.47,5.47,0,0,0-1.85,3.81c-1.27,12.15-8.89,17.61-20.76,15-1.11-.24-2.25-.34-3.37-.5,0-3.21.33-6.48-.1-9.63-.71-5.14,1.51-8.52,5.19-11.7,2.35-2,5.9-3,6.62-6.65l.47-.7-.74.42c-3.59,1.37-6.32,4-9.17,6.41-2.37,2-2.89,1.14-3.31-1.57-1.11-7.2,1.26-13.1,6.05-18.27.35-.4.72-.8,1.08-1.2s.71-.79,1.07-1.19.74-.78,1.46-1.59l-.36.41a8,8,0,0,0,1.1-.08c.16,0,.3-.21.45-.32a1.15,1.15,0,0,0-1.18,0c-.76.78-1.15,1.15-1.55,1.51l-1.19,1.07-1.21,1.07-5,2.63c-2.54-8.37-2.17-16,5.13-21.84.23-.18.2-.7.29-1.06l.45-.68-.67.46c-2.87-.08-3.6,3.76-6.58,3.71-.53-5.83-1.05-11.52-1.62-17.79a8,8,0,0,0-.62,1.64c-.09,3.4-.15,6.79-.22,10.19-.12,6.07-.12,6.07-5.52,3.24l-1.17-1.1-.7-.45.43.7,1.06,1.23c3.65,5.25,5.71,10.81,4.78,17.44-.6,4.24-.19,4.3-5.51,3.47,7.53,5.91,4.91,13.15,5,20.6l-11.06-7.73-2.23-1.19-1.17-1.11-.67-.45.46.66,1.13,1.15,2.15,1.33c.5,2.66,2.57,4.41,4.54,5.5C132.75,319.78,132.82,326.44,131.07,333.84ZM123,292.65c.36.39.73.77,1.1,1.16l1.14.94.44-.62-1.43-.46-1.16-1.11-.59-.55Z" transform="translate(-95.91 -53.66)"/><path class="cls-8" d="M142.56,295.22c-4.79,5.17-7.16,11.07-6.05,18.27.42,2.71.94,3.58,3.31,1.57,2.85-2.42,5.58-5,9.17-6.41l.28.28c-.73,3.67-4.28,4.63-6.63,6.65-3.68,3.18-5.9,6.56-5.19,11.7.43,3.15.09,6.42.1,9.63.25,4.91.57,9.82.71,14.73.08,2.82,1.24,6.05-4,6.05s-3.58-3.22-3.58-5.71c0-6.05.23-12.09.36-18.14,1.75-7.4,1.68-14.06-6.16-18.4-2-1.09-4-2.84-4.54-5.5l.33-.39,11.06,7.73c-.1-7.45,2.52-14.69-5-20.6,5.32.83,4.91.77,5.51-3.47.93-6.63-1.13-12.19-4.78-17.44l.38-.38c5.4,2.83,5.4,2.83,5.52-3.24.07-3.4.13-6.79.22-10.19a8,8,0,0,1,.62-1.64c.57,6.27,1.09,12,1.62,17.79,3,.05,3.71-3.79,6.58-3.71l.22.22c-.09.36-.06.88-.29,1.06-7.3,5.88-7.67,13.47-5.13,21.84l5-2.63Z" transform="translate(-95.91 -53.66)"/><path class="cls-8" d="M146.53,290.83l.83.42c-.15.11-.29.29-.45.32a8,8,0,0,1-1.1.08Z" transform="translate(-95.91 -53.66)"/><path class="cls-8" d="M120.37,309.94l-2.15-1.33.26-.25,2.22,1.19Z" transform="translate(-95.91 -53.66)"/><path class="cls-8" d="M124.23,293.66l1.43.47-.44.62-1.14-.94Z" transform="translate(-95.91 -53.66)"/><path class="cls-8" d="M123,292.65l-.5-.64.59.55Z" transform="translate(-95.91 -53.66)"/><path class="cls-8" d="M149,308.65l.74-.42-.47.7Z" transform="translate(-95.91 -53.66)"/><path class="cls-8" d="M144.63,292.75l1.18-1.1c-.36.4-.73.79-1.1,1.18Z" transform="translate(-95.91 -53.66)"/><path class="cls-8" d="M118.22,308.61l-1.13-1.15.21-.21,1.17,1.11Z" transform="translate(-95.91 -53.66)"/><path class="cls-8" d="M117.09,307.46l-.46-.66.67.45Z" transform="translate(-95.91 -53.66)"/><path class="cls-8" d="M143.64,294c-.36.4-.73.8-1.08,1.2l-.33-.33,1.21-1.07Z" transform="translate(-95.91 -53.66)"/><path class="cls-8" d="M144.71,292.83c-.36.4-.72.79-1.07,1.19l-.2-.2,1.19-1.07Z" transform="translate(-95.91 -53.66)"/><path class="cls-8" d="M123.07,292.56l1.16,1.1-.15.15c-.37-.39-.74-.77-1.1-1.16Z" transform="translate(-95.91 -53.66)"/><path class="cls-8" d="M126.69,274.28l1.17,1.11-.38.38-1.06-1.23Z" transform="translate(-95.91 -53.66)"/><path class="cls-8" d="M142.42,274.4l.67-.46-.45.68Z" transform="translate(-95.91 -53.66)"/><path class="cls-8" d="M126.42,274.54l-.43-.7.7.45Z" transform="translate(-95.91 -53.66)"/></svg>