<svg id="Facebook" xmlns="http://www.w3.org/2000/svg" viewBox="0 0 128 128"><defs><style>.cls-1{fill:#673479;}.cls-2{fill:#fff;}</style></defs><title>Facebook</title><circle id="facebook-back" class="cls-1" cx="64" cy="64" r="64"/><path id="facebook-facebook" class="cls-2" d="M95.14,29H32.86A3.86,3.86,0,0,0,29,32.86V95.14A3.86,3.86,0,0,0,32.86,99H66.39V71.89H57.27V61.33h9.12V53.54c0-9,5.52-14,13.59-14a74.17,74.17,0,0,1,8.15.42v9.45H82.54c-4.39,0-5.24,2.08-5.24,5.14v6.75H87.76L86.4,71.89H77.3V99H95.14A3.86,3.86,0,0,0,99,95.14V32.86A3.86,3.86,0,0,0,95.14,29Z"/></svg>